<?xml version="1.0" encoding="utf-8" standalone="no"?>
<!DOCTYPE svg PUBLIC "-//W3C//DTD SVG 1.1//EN"
  "http://www.w3.org/Graphics/SVG/1.1/DTD/svg11.dtd">
<svg xmlns:xlink="http://www.w3.org/1999/xlink" width="267.59952pt" height="267.59952pt" viewBox="0 0 267.59952 267.59952" xmlns="http://www.w3.org/2000/svg" version="1.1">
 <metadata>
  <rdf:RDF xmlns:dc="http://purl.org/dc/elements/1.1/" xmlns:cc="http://creativecommons.org/ns#" xmlns:rdf="http://www.w3.org/1999/02/22-rdf-syntax-ns#">
   <cc:Work>
    <dc:type rdf:resource="http://purl.org/dc/dcmitype/StillImage"/>
    <dc:date>2026-02-19T18:56:15.737548</dc:date>
    <dc:format>image/svg+xml</dc:format>
    <dc:creator>
     <cc:Agent>
      <dc:title>Matplotlib v3.10.0, https://matplotlib.org/</dc:title>
     </cc:Agent>
    </dc:creator>
   </cc:Work>
  </rdf:RDF>
 </metadata>
 <defs>
  <style type="text/css">*{stroke-linejoin: round; stroke-linecap: butt}</style>
 </defs>
 <g id="figure_1">
  <g id="patch_1">
   <path d="M 0 267.59952 
L 267.59952 267.59952 
L 267.59952 0 
L 0 0 
z
" style="fill: #ffffff"/>
  </g>
  <g id="axes_1">
   <g id="patch_2">
    <path d="M 43.505 234.987411 
L 260.39952 234.987411 
L 260.39952 20.004844 
L 43.505 20.004844 
z
" style="fill: #ffffff"/>
   </g>
   <g id="FillBetweenPolyCollection_1">
    <path d="M 43.505 60.12636 
L 43.505 71.66915 
L 46.087078 72.469595 
L 48.669155 73.255156 
L 51.251233 73.977783 
L 53.83331 74.747381 
L 56.415388 75.430551 
L 58.997466 76.154018 
L 61.579543 76.848856 
L 64.161621 77.546576 
L 66.743699 78.246809 
L 69.325776 78.950751 
L 71.907854 79.625031 
L 74.489931 80.269823 
L 77.072009 80.951913 
L 79.654087 81.596735 
L 82.236164 82.30401 
L 84.818242 82.949282 
L 87.40032 83.692988 
L 89.982397 84.436542 
L 92.564475 85.147831 
L 95.146552 85.911347 
L 97.72863 86.756135 
L 100.310708 87.667037 
L 102.892785 88.527615 
L 105.474863 89.455745 
L 108.05694 90.335883 
L 110.639018 91.312286 
L 113.221096 92.370393 
L 115.803173 93.415833 
L 118.385251 94.531377 
L 120.967329 95.705449 
L 123.549406 96.824325 
L 126.131484 98.085232 
L 128.713561 99.189305 
L 131.295639 100.291971 
L 133.877717 101.357277 
L 136.459794 102.416471 
L 139.041872 103.552628 
L 141.62395 104.70794 
L 144.206027 105.882461 
L 146.788105 107.139566 
L 149.370182 108.55141 
L 151.95226 109.850329 
L 154.534338 111.313021 
L 157.116415 112.710929 
L 159.698493 114.13263 
L 162.28057 115.76699 
L 164.862648 117.285899 
L 167.444726 119.154194 
L 170.026803 121.154193 
L 172.608881 123.161348 
L 175.190959 125.354889 
L 177.773036 127.608905 
L 180.355114 130.156717 
L 182.937191 132.636257 
L 185.519269 135.30197 
L 188.101347 138.090394 
L 190.683424 140.962827 
L 193.265502 143.930197 
L 195.84758 146.723678 
L 198.429657 149.635172 
L 201.011735 152.736794 
L 203.593812 155.598385 
L 206.17589 159.283231 
L 208.757968 162.522052 
L 211.340045 165.891853 
L 213.922123 168.939494 
L 216.5042 172.439065 
L 219.086278 176.448806 
L 221.668356 180.442695 
L 224.250433 185.251425 
L 226.832511 189.676595 
L 229.414589 195.125545 
L 231.996666 200.509735 
L 234.578744 206.766344 
L 237.160821 211.951482 
L 239.742899 219.815738 
L 242.324977 227.034126 
L 244.907054 236.199844 
L 247.489132 249.118645 
L 250.07121 263.44604 
L 252.653287 279.830146 
L 255.235365 305.798341 
L 257.817442 54444.103869 
L 260.39952 54444.103869 
L 260.39952 54444.103869 
L 260.39952 54444.103869 
L 257.817442 305.798341 
L 255.235365 253.861952 
L 252.653287 236.199844 
L 250.07121 223.877808 
L 247.489132 213.3288 
L 244.907054 204.709632 
L 242.324977 198.157127 
L 239.742899 191.860048 
L 237.160821 186.585544 
L 234.578744 181.64894 
L 231.996666 176.648278 
L 229.414589 172.023636 
L 226.832511 167.948565 
L 224.250433 164.117461 
L 221.668356 160.566571 
L 219.086278 157.170535 
L 216.5042 154.124312 
L 213.922123 151.118135 
L 211.340045 148.00011 
L 208.757968 145.06089 
L 206.17589 142.259279 
L 203.593812 139.691816 
L 201.011735 137.186704 
L 198.429657 134.785099 
L 195.84758 132.265711 
L 193.265502 129.836631 
L 190.683424 127.596329 
L 188.101347 125.309191 
L 185.519269 122.758342 
L 182.937191 120.456155 
L 180.355114 118.11304 
L 177.773036 115.645344 
L 175.190959 113.280366 
L 172.608881 111.21851 
L 170.026803 109.380271 
L 167.444726 107.636873 
L 164.862648 106.084017 
L 162.28057 104.584135 
L 159.698493 103.138007 
L 157.116415 101.720517 
L 154.534338 100.395174 
L 151.95226 98.974813 
L 149.370182 97.589015 
L 146.788105 96.286669 
L 144.206027 95.007964 
L 141.62395 93.704804 
L 139.041872 92.526716 
L 136.459794 91.358381 
L 133.877717 90.19594 
L 131.295639 89.038737 
L 128.713561 87.919121 
L 126.131484 86.702581 
L 123.549406 85.252411 
L 120.967329 83.903905 
L 118.385251 82.542058 
L 115.803173 81.309353 
L 113.221096 80.090534 
L 110.639018 79.056965 
L 108.05694 77.963298 
L 105.474863 77.021365 
L 102.892785 76.055794 
L 100.310708 75.188299 
L 97.72863 74.329059 
L 95.146552 73.483391 
L 92.564475 72.712521 
L 89.982397 71.981539 
L 87.40032 71.275967 
L 84.818242 70.552548 
L 82.236164 69.891074 
L 79.654087 69.240154 
L 77.072009 68.575602 
L 74.489931 67.910093 
L 71.907854 67.269666 
L 69.325776 66.619435 
L 66.743699 65.980119 
L 64.161621 65.329649 
L 61.579543 64.693087 
L 58.997466 64.074075 
L 56.415388 63.427526 
L 53.83331 62.778741 
L 51.251233 62.098439 
L 48.669155 61.457078 
L 46.087078 60.782728 
L 43.505 60.12636 
z
" clip-path="url(#pf0cd0f96df)" style="fill: #1f77b4; fill-opacity: 0.14"/>
   </g>
   <g id="FillBetweenPolyCollection_2">
    <path d="M 43.505 60.149543 
L 43.505 71.703394 
L 46.087078 72.507464 
L 48.669155 73.293043 
L 51.251233 74.01815 
L 53.83331 74.790431 
L 56.415388 75.479024 
L 58.997466 76.195423 
L 61.579543 76.901802 
L 64.161621 77.587465 
L 66.743699 78.285805 
L 69.325776 78.990928 
L 71.907854 79.664716 
L 74.489931 80.325918 
L 77.072009 80.98689 
L 79.654087 81.657873 
L 82.236164 82.348462 
L 84.818242 82.98925 
L 87.40032 83.740133 
L 89.982397 84.485195 
L 92.564475 85.204247 
L 95.146552 85.969618 
L 97.72863 86.812049 
L 100.310708 87.729806 
L 102.892785 88.60479 
L 105.474863 89.528479 
L 108.05694 90.411381 
L 110.639018 91.399128 
L 113.221096 92.452689 
L 115.803173 93.501857 
L 118.385251 94.621566 
L 120.967329 95.780597 
L 123.549406 96.916853 
L 126.131484 98.197334 
L 128.713561 99.325784 
L 131.295639 100.383243 
L 133.877717 101.511076 
L 136.459794 102.529402 
L 139.041872 103.73061 
L 141.62395 104.841998 
L 144.206027 106.06884 
L 146.788105 107.293521 
L 149.370182 108.714873 
L 151.95226 110.02306 
L 154.534338 111.496821 
L 157.116415 112.905974 
L 159.698493 114.339819 
L 162.28057 115.989081 
L 164.862648 117.50639 
L 167.444726 119.357394 
L 170.026803 121.414105 
L 172.608881 123.539552 
L 175.190959 125.688868 
L 177.773036 128.014923 
L 180.355114 130.481197 
L 182.937191 132.996899 
L 185.519269 135.617606 
L 188.101347 138.585537 
L 190.683424 141.319623 
L 193.265502 144.309615 
L 195.84758 147.237551 
L 198.429657 150.184525 
L 201.011735 153.439126 
L 203.593812 156.307765 
L 206.17589 159.866897 
L 208.757968 163.363325 
L 211.340045 166.666915 
L 213.922123 170.049428 
L 216.5042 173.292488 
L 219.086278 177.359991 
L 221.668356 181.897755 
L 224.250433 185.541457 
L 226.832511 190.925647 
L 229.414589 195.567376 
L 231.996666 201.635532 
L 234.578744 207.86595 
L 237.160821 213.3288 
L 239.742899 221.093739 
L 242.324977 228.785836 
L 244.907054 236.199844 
L 247.489132 249.118645 
L 250.07121 263.44604 
L 252.653287 279.830146 
L 255.235365 305.798341 
L 257.817442 54444.103869 
L 260.39952 54444.103869 
L 260.39952 54444.103869 
L 260.39952 54444.103869 
L 257.817442 305.798341 
L 255.235365 253.861952 
L 252.653287 236.199844 
L 250.07121 223.877808 
L 247.489132 213.806337 
L 244.907054 205.375515 
L 242.324977 198.915607 
L 239.742899 192.63511 
L 237.160821 186.892525 
L 234.578744 181.77302 
L 231.996666 176.950677 
L 229.414589 172.607302 
L 226.832511 168.438837 
L 224.250433 164.593795 
L 221.668356 161.18323 
L 219.086278 157.614024 
L 216.5042 154.671315 
L 213.922123 151.495242 
L 211.340045 148.451504 
L 208.757968 145.566377 
L 206.17589 142.827169 
L 203.593812 140.20062 
L 201.011735 137.547876 
L 198.429657 135.180352 
L 195.84758 132.527579 
L 193.265502 130.100738 
L 190.683424 127.836431 
L 188.101347 125.596264 
L 185.519269 123.005532 
L 182.937191 120.708462 
L 180.355114 118.375443 
L 177.773036 115.812769 
L 175.190959 113.480187 
L 172.608881 111.407912 
L 170.026803 109.561311 
L 167.444726 107.777798 
L 164.862648 106.236319 
L 162.28057 104.760515 
L 159.698493 103.303884 
L 157.116415 101.859771 
L 154.534338 100.490839 
L 151.95226 99.102521 
L 149.370182 97.681044 
L 146.788105 96.360337 
L 144.206027 95.071394 
L 141.62395 93.782865 
L 139.041872 92.600975 
L 136.459794 91.434499 
L 133.877717 90.247674 
L 131.295639 89.100328 
L 128.713561 87.980211 
L 126.131484 86.760603 
L 123.549406 85.306977 
L 120.967329 83.955441 
L 118.385251 82.590706 
L 115.803173 81.355527 
L 113.221096 80.134385 
L 110.639018 79.098938 
L 108.05694 78.017259 
L 105.474863 77.079149 
L 102.892785 76.111262 
L 100.310708 75.215703 
L 97.72863 74.355484 
L 95.146552 73.510162 
L 92.564475 72.737199 
L 89.982397 72.012647 
L 87.40032 71.32127 
L 84.818242 70.580703 
L 82.236164 69.918451 
L 79.654087 69.266787 
L 77.072009 68.601497 
L 74.489931 67.949379 
L 71.907854 67.3079 
L 69.325776 66.656631 
L 66.743699 66.009819 
L 64.161621 65.358543 
L 61.579543 64.721213 
L 58.997466 64.101474 
L 56.415388 63.454184 
L 53.83331 62.804678 
L 51.251233 62.118124 
L 48.669155 61.476237 
L 46.087078 60.811781 
L 43.505 60.149543 
z
" clip-path="url(#pf0cd0f96df)" style="fill: #1f77b4; fill-opacity: 0.08"/>
   </g>
   <g id="FillBetweenPolyCollection_3">
    <path d="M 43.505 40.071053 
L 43.505 50.378712 
L 46.087078 50.623995 
L 48.669155 50.858636 
L 51.251233 51.070935 
L 53.83331 51.307087 
L 56.415388 51.559728 
L 58.997466 51.861503 
L 61.579543 52.143923 
L 64.161621 52.487867 
L 66.743699 52.76943 
L 69.325776 53.125358 
L 71.907854 53.472516 
L 74.489931 53.841495 
L 77.072009 54.215197 
L 79.654087 54.601206 
L 82.236164 54.976729 
L 84.818242 55.405115 
L 87.40032 55.848054 
L 89.982397 56.303763 
L 92.564475 56.759638 
L 95.146552 57.230242 
L 97.72863 57.686231 
L 100.310708 58.149192 
L 102.892785 58.615966 
L 105.474863 59.137933 
L 108.05694 59.663875 
L 110.639018 60.222134 
L 113.221096 60.854307 
L 115.803173 61.467805 
L 118.385251 62.122064 
L 120.967329 62.776311 
L 123.549406 63.366822 
L 126.131484 63.920547 
L 128.713561 64.571302 
L 131.295639 65.209037 
L 133.877717 65.841391 
L 136.459794 66.49492 
L 139.041872 67.129026 
L 141.62395 67.982671 
L 144.206027 68.918668 
L 146.788105 69.879038 
L 149.370182 70.858411 
L 151.95226 71.876553 
L 154.534338 72.858492 
L 157.116415 73.921904 
L 159.698493 75.040864 
L 162.28057 76.10272 
L 164.862648 77.21453 
L 167.444726 78.384363 
L 170.026803 79.572221 
L 172.608881 80.934444 
L 175.190959 82.274422 
L 177.773036 83.744066 
L 180.355114 85.250315 
L 182.937191 86.780721 
L 185.519269 88.412323 
L 188.101347 90.036281 
L 190.683424 91.8465 
L 193.265502 93.66587 
L 195.84758 95.575324 
L 198.429657 97.656232 
L 201.011735 99.562693 
L 203.593812 101.523591 
L 206.17589 103.735191 
L 208.757968 106.119466 
L 211.340045 108.433742 
L 213.922123 111.036852 
L 216.5042 113.598113 
L 219.086278 116.189988 
L 221.668356 119.075154 
L 224.250433 122.422623 
L 226.832511 126.121947 
L 229.414589 130.240935 
L 231.996666 134.938977 
L 234.578744 140.459189 
L 237.160821 146.554839 
L 239.742899 153.252269 
L 242.324977 160.719234 
L 244.907054 168.509713 
L 247.489132 178.523581 
L 250.07121 191.670189 
L 252.653287 208.244154 
L 255.235365 230.677827 
L 257.817442 273.030128 
L 260.39952 54444.103869 
L 260.39952 54444.103869 
L 260.39952 54444.103869 
L 257.817442 228.785836 
L 255.235365 200.236468 
L 252.653287 182.149218 
L 250.07121 168.652107 
L 247.489132 158.111669 
L 244.907054 149.795425 
L 242.324977 142.470642 
L 239.742899 136.352688 
L 237.160821 130.998193 
L 234.578744 126.395214 
L 231.996666 122.091606 
L 229.414589 118.155166 
L 226.832511 114.332644 
L 224.250433 111.136904 
L 221.668356 108.012724 
L 219.086278 105.146438 
L 216.5042 102.525049 
L 213.922123 100.323678 
L 211.340045 98.081625 
L 208.757968 95.796966 
L 206.17589 93.448426 
L 203.593812 91.142243 
L 201.011735 89.04612 
L 198.429657 87.082295 
L 195.84758 85.208431 
L 193.265502 83.487828 
L 190.683424 81.746264 
L 188.101347 79.962819 
L 185.519269 78.281122 
L 182.937191 76.606241 
L 180.355114 75.051754 
L 177.773036 73.563796 
L 175.190959 72.061785 
L 172.608881 70.660846 
L 170.026803 69.344729 
L 167.444726 68.058511 
L 164.862648 66.827146 
L 162.28057 65.632986 
L 159.698493 64.536372 
L 157.116415 63.44835 
L 154.534338 62.396255 
L 151.95226 61.369912 
L 149.370182 60.390678 
L 146.788105 59.400495 
L 144.206027 58.413058 
L 141.62395 57.449054 
L 139.041872 56.563897 
L 136.459794 55.848658 
L 133.877717 55.138005 
L 131.295639 54.473165 
L 128.713561 53.785503 
L 126.131484 53.128589 
L 123.549406 52.499401 
L 120.967329 51.890616 
L 118.385251 51.278683 
L 115.803173 50.706 
L 113.221096 50.13073 
L 110.639018 49.565422 
L 108.05694 49.020107 
L 105.474863 48.491073 
L 102.892785 47.989214 
L 100.310708 47.491849 
L 97.72863 46.994761 
L 95.146552 46.540085 
L 92.564475 46.066013 
L 89.982397 45.604003 
L 87.40032 45.170842 
L 84.818242 44.760213 
L 82.236164 44.365887 
L 79.654087 43.970719 
L 77.072009 43.614796 
L 74.489931 43.269475 
L 71.907854 42.931925 
L 69.325776 42.582575 
L 66.743699 42.241032 
L 64.161621 41.943241 
L 61.579543 41.649486 
L 58.997466 41.382917 
L 56.415388 41.097297 
L 53.83331 40.873697 
L 51.251233 40.654735 
L 48.669155 40.465817 
L 46.087078 40.269643 
L 43.505 40.071053 
z
" clip-path="url(#pf0cd0f96df)" style="fill: #ff7f0e; fill-opacity: 0.14"/>
   </g>
   <g id="FillBetweenPolyCollection_4">
    <path d="M 43.505 40.081594 
L 43.505 50.391659 
L 46.087078 50.637562 
L 48.669155 50.872339 
L 51.251233 51.084761 
L 53.83331 51.32205 
L 56.415388 51.573843 
L 58.997466 51.875799 
L 61.579543 52.158391 
L 64.161621 52.507268 
L 66.743699 52.789063 
L 69.325776 53.14044 
L 71.907854 53.487275 
L 74.489931 53.857041 
L 77.072009 54.233812 
L 79.654087 54.61726 
L 82.236164 54.998869 
L 84.818242 55.419352 
L 87.40032 55.858932 
L 89.982397 56.327182 
L 92.564475 56.777856 
L 95.146552 57.243058 
L 97.72863 57.697989 
L 100.310708 58.168513 
L 102.892785 58.628196 
L 105.474863 59.15808 
L 108.05694 59.68803 
L 110.639018 60.241772 
L 113.221096 60.878215 
L 115.803173 61.492342 
L 118.385251 62.142557 
L 120.967329 62.799002 
L 123.549406 63.3851 
L 126.131484 63.939259 
L 128.713561 64.590535 
L 131.295639 65.228796 
L 133.877717 65.867225 
L 136.459794 66.521479 
L 139.041872 67.156307 
L 141.62395 68.010956 
L 144.206027 68.948097 
L 146.788105 69.909687 
L 149.370182 70.890358 
L 151.95226 71.909907 
L 154.534338 72.893262 
L 157.116415 73.958275 
L 159.698493 75.079 
L 162.28057 76.139758 
L 164.862648 77.253353 
L 167.444726 78.425157 
L 170.026803 79.61512 
L 172.608881 80.97989 
L 175.190959 82.322521 
L 177.773036 83.795255 
L 180.355114 85.304876 
L 182.937191 86.832211 
L 185.519269 88.474703 
L 188.101347 90.103104 
L 190.683424 91.910313 
L 193.265502 93.734797 
L 195.84758 95.650058 
L 198.429657 97.748523 
L 201.011735 99.662753 
L 203.593812 101.619754 
L 206.17589 103.854618 
L 208.757968 106.236319 
L 211.340045 108.579513 
L 213.922123 111.231089 
L 216.5042 113.779617 
L 219.086278 116.369147 
L 221.668356 119.366268 
L 224.250433 122.68673 
L 226.832511 126.383267 
L 229.414589 130.580842 
L 231.996666 135.249771 
L 234.578744 141.029317 
L 237.160821 147.208708 
L 239.742899 154.085721 
L 242.324977 161.07933 
L 244.907054 169.377233 
L 247.489132 178.741438 
L 250.07121 192.832912 
L 252.653287 209.019216 
L 255.235365 231.68382 
L 257.817442 273.030128 
L 260.39952 54444.103869 
L 260.39952 54444.103869 
L 260.39952 54444.103869 
L 257.817442 228.785836 
L 255.235365 200.786197 
L 252.653287 182.660314 
L 250.07121 169.15735 
L 247.489132 158.620017 
L 244.907054 150.282809 
L 242.324977 142.827169 
L 239.742899 136.645867 
L 237.160821 131.260994 
L 234.578744 126.659589 
L 231.996666 122.331885 
L 229.414589 118.281999 
L 226.832511 114.51267 
L 224.250433 111.294088 
L 221.668356 108.200148 
L 219.086278 105.263455 
L 216.5042 102.686664 
L 213.922123 100.442958 
L 211.340045 98.179217 
L 208.757968 95.908571 
L 206.17589 93.528617 
L 203.593812 91.241961 
L 201.011735 89.115134 
L 198.429657 87.141258 
L 195.84758 85.26709 
L 193.265502 83.522872 
L 190.683424 81.780627 
L 188.101347 80.004754 
L 185.519269 78.320176 
L 182.937191 76.642621 
L 180.355114 75.091271 
L 177.773036 73.6009 
L 175.190959 72.096603 
L 172.608881 70.695924 
L 170.026803 69.383261 
L 167.444726 68.095001 
L 164.862648 66.855043 
L 162.28057 65.665915 
L 159.698493 64.558197 
L 157.116415 63.469193 
L 154.534338 62.41619 
L 151.95226 61.389 
L 149.370182 60.408991 
L 146.788105 59.418056 
L 144.206027 58.435293 
L 141.62395 57.472341 
L 139.041872 56.579472 
L 136.459794 55.863769 
L 133.877717 55.156188 
L 131.295639 54.489702 
L 128.713561 53.805445 
L 126.131484 53.144751 
L 123.549406 52.518812 
L 120.967329 51.903396 
L 118.385251 51.295123 
L 115.803173 50.72156 
L 113.221096 50.14639 
L 110.639018 49.582566 
L 108.05694 49.031426 
L 105.474863 48.504798 
L 102.892785 48.000049 
L 100.310708 47.505855 
L 97.72863 47.008475 
L 95.146552 46.555169 
L 92.564475 46.080397 
L 89.982397 45.618109 
L 87.40032 45.184692 
L 84.818242 44.77269 
L 82.236164 44.375182 
L 79.654087 43.982786 
L 77.072009 43.625962 
L 74.489931 43.281544 
L 71.907854 42.943472 
L 69.325776 42.594298 
L 66.743699 42.252247 
L 64.161621 41.954651 
L 61.579543 41.660755 
L 58.997466 41.39406 
L 56.415388 41.108954 
L 53.83331 40.885244 
L 51.251233 40.665222 
L 48.669155 40.476535 
L 46.087078 40.27996 
L 43.505 40.081594 
z
" clip-path="url(#pf0cd0f96df)" style="fill: #ff7f0e; fill-opacity: 0.08"/>
   </g>
   <g id="matplotlib.axis_1">
    <g id="xtick_1">
     <g id="line2d_1">
      <path d="M 43.505 234.987411 
L 43.505 20.004844 
" clip-path="url(#pf0cd0f96df)" style="fill: none; stroke-dasharray: 2.22,0.96; stroke-dashoffset: 0; stroke: #b0b0b0; stroke-opacity: 0.25; stroke-width: 0.6"/>
     </g>
     <g id="line2d_2">
      <defs>
       <path id="m6e846cbac9" d="M 0 0 
L 0 3.5 
" style="stroke: #000000; stroke-width: 0.8"/>
      </defs>
      <g>
       <use xlink:href="#m6e846cbac9" x="43.505" y="234.987411" style="stroke: #000000; stroke-width: 0.8"/>
      </g>
     </g>
     <g id="text_1">
      <!-- 0.0010% -->
      <g transform="translate(30.068867 247.195223) scale(0.075 -0.075)">
       <defs>
        <path id="TimesNewRomanPSMT-30" d="M 231 2094 
Q 231 2819 450 3342 
Q 669 3866 1031 4122 
Q 1313 4325 1613 4325 
Q 2100 4325 2488 3828 
Q 2972 3213 2972 2159 
Q 2972 1422 2759 906 
Q 2547 391 2217 158 
Q 1888 -75 1581 -75 
Q 975 -75 572 641 
Q 231 1244 231 2094 
z
M 844 2016 
Q 844 1141 1059 588 
Q 1238 122 1591 122 
Q 1759 122 1940 273 
Q 2122 425 2216 781 
Q 2359 1319 2359 2297 
Q 2359 3022 2209 3506 
Q 2097 3866 1919 4016 
Q 1791 4119 1609 4119 
Q 1397 4119 1231 3928 
Q 1006 3669 925 3112 
Q 844 2556 844 2016 
z
" transform="scale(0.015625)"/>
        <path id="TimesNewRomanPSMT-2e" d="M 800 606 
Q 947 606 1047 504 
Q 1147 403 1147 259 
Q 1147 116 1045 14 
Q 944 -88 800 -88 
Q 656 -88 554 14 
Q 453 116 453 259 
Q 453 406 554 506 
Q 656 606 800 606 
z
" transform="scale(0.015625)"/>
        <path id="TimesNewRomanPSMT-31" d="M 750 3822 
L 1781 4325 
L 1884 4325 
L 1884 747 
Q 1884 391 1914 303 
Q 1944 216 2037 169 
Q 2131 122 2419 116 
L 2419 0 
L 825 0 
L 825 116 
Q 1125 122 1212 167 
Q 1300 213 1334 289 
Q 1369 366 1369 747 
L 1369 3034 
Q 1369 3497 1338 3628 
Q 1316 3728 1258 3775 
Q 1200 3822 1119 3822 
Q 1003 3822 797 3725 
L 750 3822 
z
" transform="scale(0.015625)"/>
        <path id="TimesNewRomanPSMT-25" d="M 4350 4334 
L 1263 -175 
L 984 -175 
L 4072 4334 
L 4350 4334 
z
M 1138 4334 
Q 1559 4334 1792 3984 
Q 2025 3634 2025 3181 
Q 2025 2638 1762 2341 
Q 1500 2044 1131 2044 
Q 884 2044 678 2180 
Q 472 2316 348 2584 
Q 225 2853 225 3181 
Q 225 3509 350 3786 
Q 475 4063 692 4198 
Q 909 4334 1138 4334 
z
M 1128 4159 
Q 969 4159 845 3971 
Q 722 3784 722 3184 
Q 722 2750 791 2522 
Q 844 2350 956 2256 
Q 1022 2200 1119 2200 
Q 1269 2200 1375 2363 
Q 1531 2603 1531 3166 
Q 1531 3759 1378 4000 
Q 1278 4159 1128 4159 
z
M 4206 2103 
Q 4428 2103 4648 1962 
Q 4869 1822 4989 1553 
Q 5109 1284 5109 963 
Q 5109 409 4843 117 
Q 4578 -175 4216 -175 
Q 3988 -175 3773 -34 
Q 3559 106 3436 367 
Q 3313 628 3313 963 
Q 3313 1291 3436 1562 
Q 3559 1834 3773 1968 
Q 3988 2103 4206 2103 
z
M 4209 1938 
Q 4059 1938 3950 1769 
Q 3809 1550 3809 941 
Q 3809 381 3953 159 
Q 4059 0 4209 0 
Q 4353 0 4466 172 
Q 4616 400 4616 956 
Q 4616 1544 4466 1778 
Q 4363 1938 4209 1938 
z
" transform="scale(0.015625)"/>
       </defs>
       <use xlink:href="#TimesNewRomanPSMT-30"/>
       <use xlink:href="#TimesNewRomanPSMT-2e" transform="translate(50 0)"/>
       <use xlink:href="#TimesNewRomanPSMT-30" transform="translate(75 0)"/>
       <use xlink:href="#TimesNewRomanPSMT-30" transform="translate(125 0)"/>
       <use xlink:href="#TimesNewRomanPSMT-31" transform="translate(175 0)"/>
       <use xlink:href="#TimesNewRomanPSMT-30" transform="translate(225 0)"/>
       <use xlink:href="#TimesNewRomanPSMT-25" transform="translate(275 0)"/>
      </g>
     </g>
    </g>
    <g id="xtick_2">
     <g id="line2d_3">
      <path d="M 87.075613 234.987411 
L 87.075613 20.004844 
" clip-path="url(#pf0cd0f96df)" style="fill: none; stroke-dasharray: 2.22,0.96; stroke-dashoffset: 0; stroke: #b0b0b0; stroke-opacity: 0.25; stroke-width: 0.6"/>
     </g>
     <g id="line2d_4">
      <g>
       <use xlink:href="#m6e846cbac9" x="87.075613" y="234.987411" style="stroke: #000000; stroke-width: 0.8"/>
      </g>
     </g>
     <g id="text_2">
      <!-- 0.010% -->
      <g transform="translate(75.514481 247.195223) scale(0.075 -0.075)">
       <use xlink:href="#TimesNewRomanPSMT-30"/>
       <use xlink:href="#TimesNewRomanPSMT-2e" transform="translate(50 0)"/>
       <use xlink:href="#TimesNewRomanPSMT-30" transform="translate(75 0)"/>
       <use xlink:href="#TimesNewRomanPSMT-31" transform="translate(125 0)"/>
       <use xlink:href="#TimesNewRomanPSMT-30" transform="translate(175 0)"/>
       <use xlink:href="#TimesNewRomanPSMT-25" transform="translate(225 0)"/>
      </g>
     </g>
    </g>
    <g id="xtick_3">
     <g id="line2d_5">
      <path d="M 130.646227 234.987411 
L 130.646227 20.004844 
" clip-path="url(#pf0cd0f96df)" style="fill: none; stroke-dasharray: 2.22,0.96; stroke-dashoffset: 0; stroke: #b0b0b0; stroke-opacity: 0.25; stroke-width: 0.6"/>
     </g>
     <g id="line2d_6">
      <g>
       <use xlink:href="#m6e846cbac9" x="130.646227" y="234.987411" style="stroke: #000000; stroke-width: 0.8"/>
      </g>
     </g>
     <g id="text_3">
      <!-- 0.10% -->
      <g transform="translate(120.960094 247.195223) scale(0.075 -0.075)">
       <use xlink:href="#TimesNewRomanPSMT-30"/>
       <use xlink:href="#TimesNewRomanPSMT-2e" transform="translate(50 0)"/>
       <use xlink:href="#TimesNewRomanPSMT-31" transform="translate(75 0)"/>
       <use xlink:href="#TimesNewRomanPSMT-30" transform="translate(125 0)"/>
       <use xlink:href="#TimesNewRomanPSMT-25" transform="translate(175 0)"/>
      </g>
     </g>
    </g>
    <g id="xtick_4">
     <g id="line2d_7">
      <path d="M 174.21684 234.987411 
L 174.21684 20.004844 
" clip-path="url(#pf0cd0f96df)" style="fill: none; stroke-dasharray: 2.22,0.96; stroke-dashoffset: 0; stroke: #b0b0b0; stroke-opacity: 0.25; stroke-width: 0.6"/>
     </g>
     <g id="line2d_8">
      <g>
       <use xlink:href="#m6e846cbac9" x="174.21684" y="234.987411" style="stroke: #000000; stroke-width: 0.8"/>
      </g>
     </g>
     <g id="text_4">
      <!-- 1.0% -->
      <g transform="translate(166.405707 247.195223) scale(0.075 -0.075)">
       <use xlink:href="#TimesNewRomanPSMT-31"/>
       <use xlink:href="#TimesNewRomanPSMT-2e" transform="translate(50 0)"/>
       <use xlink:href="#TimesNewRomanPSMT-30" transform="translate(75 0)"/>
       <use xlink:href="#TimesNewRomanPSMT-25" transform="translate(125 0)"/>
      </g>
     </g>
    </g>
    <g id="xtick_5">
     <g id="line2d_9">
      <path d="M 217.787454 234.987411 
L 217.787454 20.004844 
" clip-path="url(#pf0cd0f96df)" style="fill: none; stroke-dasharray: 2.22,0.96; stroke-dashoffset: 0; stroke: #b0b0b0; stroke-opacity: 0.25; stroke-width: 0.6"/>
     </g>
     <g id="line2d_10">
      <g>
       <use xlink:href="#m6e846cbac9" x="217.787454" y="234.987411" style="stroke: #000000; stroke-width: 0.8"/>
      </g>
     </g>
     <g id="text_5">
      <!-- 10% -->
      <g transform="translate(210.913821 247.195223) scale(0.075 -0.075)">
       <use xlink:href="#TimesNewRomanPSMT-31"/>
       <use xlink:href="#TimesNewRomanPSMT-30" transform="translate(50 0)"/>
       <use xlink:href="#TimesNewRomanPSMT-25" transform="translate(100 0)"/>
      </g>
     </g>
    </g>
    <g id="xtick_6">
     <g id="line2d_11">
      <defs>
       <path id="m43e47a0e00" d="M 0 0 
L 0 2 
" style="stroke: #000000; stroke-width: 0.6"/>
      </defs>
      <g>
       <use xlink:href="#m43e47a0e00" x="56.621062" y="234.987411" style="stroke: #000000; stroke-width: 0.6"/>
      </g>
     </g>
    </g>
    <g id="xtick_7">
     <g id="line2d_12">
      <g>
       <use xlink:href="#m43e47a0e00" x="64.293466" y="234.987411" style="stroke: #000000; stroke-width: 0.6"/>
      </g>
     </g>
    </g>
    <g id="xtick_8">
     <g id="line2d_13">
      <g>
       <use xlink:href="#m43e47a0e00" x="69.737123" y="234.987411" style="stroke: #000000; stroke-width: 0.6"/>
      </g>
     </g>
    </g>
    <g id="xtick_9">
     <g id="line2d_14">
      <g>
       <use xlink:href="#m43e47a0e00" x="73.959552" y="234.987411" style="stroke: #000000; stroke-width: 0.6"/>
      </g>
     </g>
    </g>
    <g id="xtick_10">
     <g id="line2d_15">
      <g>
       <use xlink:href="#m43e47a0e00" x="77.409527" y="234.987411" style="stroke: #000000; stroke-width: 0.6"/>
      </g>
     </g>
    </g>
    <g id="xtick_11">
     <g id="line2d_16">
      <g>
       <use xlink:href="#m43e47a0e00" x="80.32644" y="234.987411" style="stroke: #000000; stroke-width: 0.6"/>
      </g>
     </g>
    </g>
    <g id="xtick_12">
     <g id="line2d_17">
      <g>
       <use xlink:href="#m43e47a0e00" x="82.853185" y="234.987411" style="stroke: #000000; stroke-width: 0.6"/>
      </g>
     </g>
    </g>
    <g id="xtick_13">
     <g id="line2d_18">
      <g>
       <use xlink:href="#m43e47a0e00" x="85.081931" y="234.987411" style="stroke: #000000; stroke-width: 0.6"/>
      </g>
     </g>
    </g>
    <g id="xtick_14">
     <g id="line2d_19">
      <g>
       <use xlink:href="#m43e47a0e00" x="100.191675" y="234.987411" style="stroke: #000000; stroke-width: 0.6"/>
      </g>
     </g>
    </g>
    <g id="xtick_15">
     <g id="line2d_20">
      <g>
       <use xlink:href="#m43e47a0e00" x="107.864079" y="234.987411" style="stroke: #000000; stroke-width: 0.6"/>
      </g>
     </g>
    </g>
    <g id="xtick_16">
     <g id="line2d_21">
      <g>
       <use xlink:href="#m43e47a0e00" x="113.307737" y="234.987411" style="stroke: #000000; stroke-width: 0.6"/>
      </g>
     </g>
    </g>
    <g id="xtick_17">
     <g id="line2d_22">
      <g>
       <use xlink:href="#m43e47a0e00" x="117.530165" y="234.987411" style="stroke: #000000; stroke-width: 0.6"/>
      </g>
     </g>
    </g>
    <g id="xtick_18">
     <g id="line2d_23">
      <g>
       <use xlink:href="#m43e47a0e00" x="120.980141" y="234.987411" style="stroke: #000000; stroke-width: 0.6"/>
      </g>
     </g>
    </g>
    <g id="xtick_19">
     <g id="line2d_24">
      <g>
       <use xlink:href="#m43e47a0e00" x="123.897053" y="234.987411" style="stroke: #000000; stroke-width: 0.6"/>
      </g>
     </g>
    </g>
    <g id="xtick_20">
     <g id="line2d_25">
      <g>
       <use xlink:href="#m43e47a0e00" x="126.423798" y="234.987411" style="stroke: #000000; stroke-width: 0.6"/>
      </g>
     </g>
    </g>
    <g id="xtick_21">
     <g id="line2d_26">
      <g>
       <use xlink:href="#m43e47a0e00" x="128.652545" y="234.987411" style="stroke: #000000; stroke-width: 0.6"/>
      </g>
     </g>
    </g>
    <g id="xtick_22">
     <g id="line2d_27">
      <g>
       <use xlink:href="#m43e47a0e00" x="143.762288" y="234.987411" style="stroke: #000000; stroke-width: 0.6"/>
      </g>
     </g>
    </g>
    <g id="xtick_23">
     <g id="line2d_28">
      <g>
       <use xlink:href="#m43e47a0e00" x="151.434693" y="234.987411" style="stroke: #000000; stroke-width: 0.6"/>
      </g>
     </g>
    </g>
    <g id="xtick_24">
     <g id="line2d_29">
      <g>
       <use xlink:href="#m43e47a0e00" x="156.87835" y="234.987411" style="stroke: #000000; stroke-width: 0.6"/>
      </g>
     </g>
    </g>
    <g id="xtick_25">
     <g id="line2d_30">
      <g>
       <use xlink:href="#m43e47a0e00" x="161.100779" y="234.987411" style="stroke: #000000; stroke-width: 0.6"/>
      </g>
     </g>
    </g>
    <g id="xtick_26">
     <g id="line2d_31">
      <g>
       <use xlink:href="#m43e47a0e00" x="164.550754" y="234.987411" style="stroke: #000000; stroke-width: 0.6"/>
      </g>
     </g>
    </g>
    <g id="xtick_27">
     <g id="line2d_32">
      <g>
       <use xlink:href="#m43e47a0e00" x="167.467667" y="234.987411" style="stroke: #000000; stroke-width: 0.6"/>
      </g>
     </g>
    </g>
    <g id="xtick_28">
     <g id="line2d_33">
      <g>
       <use xlink:href="#m43e47a0e00" x="169.994412" y="234.987411" style="stroke: #000000; stroke-width: 0.6"/>
      </g>
     </g>
    </g>
    <g id="xtick_29">
     <g id="line2d_34">
      <g>
       <use xlink:href="#m43e47a0e00" x="172.223158" y="234.987411" style="stroke: #000000; stroke-width: 0.6"/>
      </g>
     </g>
    </g>
    <g id="xtick_30">
     <g id="line2d_35">
      <g>
       <use xlink:href="#m43e47a0e00" x="187.332902" y="234.987411" style="stroke: #000000; stroke-width: 0.6"/>
      </g>
     </g>
    </g>
    <g id="xtick_31">
     <g id="line2d_36">
      <g>
       <use xlink:href="#m43e47a0e00" x="195.005306" y="234.987411" style="stroke: #000000; stroke-width: 0.6"/>
      </g>
     </g>
    </g>
    <g id="xtick_32">
     <g id="line2d_37">
      <g>
       <use xlink:href="#m43e47a0e00" x="200.448963" y="234.987411" style="stroke: #000000; stroke-width: 0.6"/>
      </g>
     </g>
    </g>
    <g id="xtick_33">
     <g id="line2d_38">
      <g>
       <use xlink:href="#m43e47a0e00" x="204.671392" y="234.987411" style="stroke: #000000; stroke-width: 0.6"/>
      </g>
     </g>
    </g>
    <g id="xtick_34">
     <g id="line2d_39">
      <g>
       <use xlink:href="#m43e47a0e00" x="208.121368" y="234.987411" style="stroke: #000000; stroke-width: 0.6"/>
      </g>
     </g>
    </g>
    <g id="xtick_35">
     <g id="line2d_40">
      <g>
       <use xlink:href="#m43e47a0e00" x="211.03828" y="234.987411" style="stroke: #000000; stroke-width: 0.6"/>
      </g>
     </g>
    </g>
    <g id="xtick_36">
     <g id="line2d_41">
      <g>
       <use xlink:href="#m43e47a0e00" x="213.565025" y="234.987411" style="stroke: #000000; stroke-width: 0.6"/>
      </g>
     </g>
    </g>
    <g id="xtick_37">
     <g id="line2d_42">
      <g>
       <use xlink:href="#m43e47a0e00" x="215.793772" y="234.987411" style="stroke: #000000; stroke-width: 0.6"/>
      </g>
     </g>
    </g>
    <g id="xtick_38">
     <g id="line2d_43">
      <g>
       <use xlink:href="#m43e47a0e00" x="230.903515" y="234.987411" style="stroke: #000000; stroke-width: 0.6"/>
      </g>
     </g>
    </g>
    <g id="xtick_39">
     <g id="line2d_44">
      <g>
       <use xlink:href="#m43e47a0e00" x="238.575919" y="234.987411" style="stroke: #000000; stroke-width: 0.6"/>
      </g>
     </g>
    </g>
    <g id="xtick_40">
     <g id="line2d_45">
      <g>
       <use xlink:href="#m43e47a0e00" x="244.019577" y="234.987411" style="stroke: #000000; stroke-width: 0.6"/>
      </g>
     </g>
    </g>
    <g id="xtick_41">
     <g id="line2d_46">
      <g>
       <use xlink:href="#m43e47a0e00" x="248.242005" y="234.987411" style="stroke: #000000; stroke-width: 0.6"/>
      </g>
     </g>
    </g>
    <g id="xtick_42">
     <g id="line2d_47">
      <g>
       <use xlink:href="#m43e47a0e00" x="251.691981" y="234.987411" style="stroke: #000000; stroke-width: 0.6"/>
      </g>
     </g>
    </g>
    <g id="xtick_43">
     <g id="line2d_48">
      <g>
       <use xlink:href="#m43e47a0e00" x="254.608894" y="234.987411" style="stroke: #000000; stroke-width: 0.6"/>
      </g>
     </g>
    </g>
    <g id="xtick_44">
     <g id="line2d_49">
      <g>
       <use xlink:href="#m43e47a0e00" x="257.135638" y="234.987411" style="stroke: #000000; stroke-width: 0.6"/>
      </g>
     </g>
    </g>
    <g id="xtick_45">
     <g id="line2d_50">
      <g>
       <use xlink:href="#m43e47a0e00" x="259.364385" y="234.987411" style="stroke: #000000; stroke-width: 0.6"/>
      </g>
     </g>
    </g>
    <g id="text_6">
     <!-- Umbral $L$/Exposición -->
     <g transform="translate(117.39226 258.63952) scale(0.08 -0.08)">
      <defs>
       <path id="TimesNewRomanPSMT-55" d="M 3053 4122 
L 3053 4238 
L 4553 4238 
L 4553 4122 
L 4394 4122 
Q 4144 4122 4009 3913 
Q 3944 3816 3944 3463 
L 3944 1744 
Q 3944 1106 3817 754 
Q 3691 403 3320 151 
Q 2950 -100 2313 -100 
Q 1619 -100 1259 140 
Q 900 381 750 788 
Q 650 1066 650 1831 
L 650 3488 
Q 650 3878 542 4000 
Q 434 4122 194 4122 
L 34 4122 
L 34 4238 
L 1866 4238 
L 1866 4122 
L 1703 4122 
Q 1441 4122 1328 3956 
Q 1250 3844 1250 3488 
L 1250 1641 
Q 1250 1394 1295 1075 
Q 1341 756 1459 578 
Q 1578 400 1801 284 
Q 2025 169 2350 169 
Q 2766 169 3094 350 
Q 3422 531 3542 814 
Q 3663 1097 3663 1772 
L 3663 3488 
Q 3663 3884 3575 3984 
Q 3453 4122 3213 4122 
L 3053 4122 
z
" transform="scale(0.015625)"/>
       <path id="TimesNewRomanPSMT-6d" d="M 1050 2338 
Q 1363 2650 1419 2697 
Q 1559 2816 1721 2881 
Q 1884 2947 2044 2947 
Q 2313 2947 2506 2790 
Q 2700 2634 2766 2338 
Q 3088 2713 3309 2830 
Q 3531 2947 3766 2947 
Q 3994 2947 4170 2830 
Q 4347 2713 4450 2447 
Q 4519 2266 4519 1878 
L 4519 647 
Q 4519 378 4559 278 
Q 4591 209 4675 161 
Q 4759 113 4950 113 
L 4950 0 
L 3538 0 
L 3538 113 
L 3597 113 
Q 3781 113 3884 184 
Q 3956 234 3988 344 
Q 4000 397 4000 647 
L 4000 1878 
Q 4000 2228 3916 2372 
Q 3794 2572 3525 2572 
Q 3359 2572 3192 2489 
Q 3025 2406 2788 2181 
L 2781 2147 
L 2788 2013 
L 2788 647 
Q 2788 353 2820 281 
Q 2853 209 2943 161 
Q 3034 113 3253 113 
L 3253 0 
L 1806 0 
L 1806 113 
Q 2044 113 2133 169 
Q 2222 225 2256 338 
Q 2272 391 2272 647 
L 2272 1878 
Q 2272 2228 2169 2381 
Q 2031 2581 1784 2581 
Q 1616 2581 1450 2491 
Q 1191 2353 1050 2181 
L 1050 647 
Q 1050 366 1089 281 
Q 1128 197 1204 155 
Q 1281 113 1516 113 
L 1516 0 
L 100 0 
L 100 113 
Q 297 113 375 155 
Q 453 197 493 289 
Q 534 381 534 647 
L 534 1741 
Q 534 2213 506 2350 
Q 484 2453 437 2492 
Q 391 2531 309 2531 
Q 222 2531 100 2484 
L 53 2597 
L 916 2947 
L 1050 2947 
L 1050 2338 
z
" transform="scale(0.015625)"/>
       <path id="TimesNewRomanPSMT-62" d="M 984 2369 
Q 1400 2947 1881 2947 
Q 2322 2947 2650 2570 
Q 2978 2194 2978 1541 
Q 2978 778 2472 313 
Q 2038 -88 1503 -88 
Q 1253 -88 995 3 
Q 738 94 469 275 
L 469 3241 
Q 469 3728 445 3840 
Q 422 3953 372 3993 
Q 322 4034 247 4034 
Q 159 4034 28 3984 
L -16 4094 
L 844 4444 
L 984 4444 
L 984 2369 
z
M 984 2169 
L 984 456 
Q 1144 300 1314 220 
Q 1484 141 1663 141 
Q 1947 141 2192 453 
Q 2438 766 2438 1363 
Q 2438 1913 2192 2208 
Q 1947 2503 1634 2503 
Q 1469 2503 1303 2419 
Q 1178 2356 984 2169 
z
" transform="scale(0.015625)"/>
       <path id="TimesNewRomanPSMT-72" d="M 1038 2947 
L 1038 2303 
Q 1397 2947 1775 2947 
Q 1947 2947 2059 2842 
Q 2172 2738 2172 2600 
Q 2172 2478 2090 2393 
Q 2009 2309 1897 2309 
Q 1788 2309 1652 2417 
Q 1516 2525 1450 2525 
Q 1394 2525 1328 2463 
Q 1188 2334 1038 2041 
L 1038 669 
Q 1038 431 1097 309 
Q 1138 225 1241 169 
Q 1344 113 1538 113 
L 1538 0 
L 72 0 
L 72 113 
Q 291 113 397 181 
Q 475 231 506 341 
Q 522 394 522 644 
L 522 1753 
Q 522 2253 501 2348 
Q 481 2444 426 2487 
Q 372 2531 291 2531 
Q 194 2531 72 2484 
L 41 2597 
L 906 2947 
L 1038 2947 
z
" transform="scale(0.015625)"/>
       <path id="TimesNewRomanPSMT-61" d="M 1822 413 
Q 1381 72 1269 19 
Q 1100 -59 909 -59 
Q 613 -59 420 144 
Q 228 347 228 678 
Q 228 888 322 1041 
Q 450 1253 767 1440 
Q 1084 1628 1822 1897 
L 1822 2009 
Q 1822 2438 1686 2597 
Q 1550 2756 1291 2756 
Q 1094 2756 978 2650 
Q 859 2544 859 2406 
L 866 2225 
Q 866 2081 792 2003 
Q 719 1925 600 1925 
Q 484 1925 411 2006 
Q 338 2088 338 2228 
Q 338 2497 613 2722 
Q 888 2947 1384 2947 
Q 1766 2947 2009 2819 
Q 2194 2722 2281 2516 
Q 2338 2381 2338 1966 
L 2338 994 
Q 2338 584 2353 492 
Q 2369 400 2405 369 
Q 2441 338 2488 338 
Q 2538 338 2575 359 
Q 2641 400 2828 588 
L 2828 413 
Q 2478 -56 2159 -56 
Q 2006 -56 1915 50 
Q 1825 156 1822 413 
z
M 1822 616 
L 1822 1706 
Q 1350 1519 1213 1441 
Q 966 1303 859 1153 
Q 753 1003 753 825 
Q 753 600 887 451 
Q 1022 303 1197 303 
Q 1434 303 1822 616 
z
" transform="scale(0.015625)"/>
       <path id="TimesNewRomanPSMT-6c" d="M 1184 4444 
L 1184 647 
Q 1184 378 1223 290 
Q 1263 203 1344 158 
Q 1425 113 1647 113 
L 1647 0 
L 244 0 
L 244 113 
Q 441 113 512 153 
Q 584 194 625 287 
Q 666 381 666 647 
L 666 3247 
Q 666 3731 644 3842 
Q 622 3953 573 3993 
Q 525 4034 450 4034 
Q 369 4034 244 3984 
L 191 4094 
L 1044 4444 
L 1184 4444 
z
" transform="scale(0.015625)"/>
       <path id="TimesNewRomanPSMT-20" transform="scale(0.015625)"/>
       <path id="DejaVuSans-Oblique-4c" d="M 1075 4666 
L 1709 4666 
L 909 525 
L 3181 525 
L 3078 0 
L 172 0 
L 1075 4666 
z
" transform="scale(0.015625)"/>
       <path id="TimesNewRomanPSMT-2f" d="M 1794 4444 
L 259 -88 
L 9 -88 
L 1544 4444 
L 1794 4444 
z
" transform="scale(0.015625)"/>
       <path id="TimesNewRomanPSMT-45" d="M 1338 4006 
L 1338 2331 
L 2269 2331 
Q 2631 2331 2753 2441 
Q 2916 2584 2934 2947 
L 3050 2947 
L 3050 1472 
L 2934 1472 
Q 2891 1781 2847 1869 
Q 2791 1978 2662 2040 
Q 2534 2103 2269 2103 
L 1338 2103 
L 1338 706 
Q 1338 425 1363 364 
Q 1388 303 1450 267 
Q 1513 231 1688 231 
L 2406 231 
Q 2766 231 2928 281 
Q 3091 331 3241 478 
Q 3434 672 3638 1063 
L 3763 1063 
L 3397 0 
L 131 0 
L 131 116 
L 281 116 
Q 431 116 566 188 
Q 666 238 702 338 
Q 738 438 738 747 
L 738 3500 
Q 738 3903 656 3997 
Q 544 4122 281 4122 
L 131 4122 
L 131 4238 
L 3397 4238 
L 3444 3309 
L 3322 3309 
Q 3256 3644 3176 3769 
Q 3097 3894 2941 3959 
Q 2816 4006 2500 4006 
L 1338 4006 
z
" transform="scale(0.015625)"/>
       <path id="TimesNewRomanPSMT-78" d="M 84 2863 
L 1431 2863 
L 1431 2747 
Q 1303 2747 1251 2703 
Q 1200 2659 1200 2588 
Q 1200 2513 1309 2356 
Q 1344 2306 1413 2200 
L 1616 1875 
L 1850 2200 
Q 2075 2509 2075 2591 
Q 2075 2656 2022 2701 
Q 1969 2747 1850 2747 
L 1850 2863 
L 2819 2863 
L 2819 2747 
Q 2666 2738 2553 2663 
Q 2400 2556 2134 2200 
L 1744 1678 
L 2456 653 
Q 2719 275 2831 198 
Q 2944 122 3122 113 
L 3122 0 
L 1772 0 
L 1772 113 
Q 1913 113 1991 175 
Q 2050 219 2050 291 
Q 2050 363 1850 653 
L 1431 1266 
L 972 653 
Q 759 369 759 316 
Q 759 241 829 180 
Q 900 119 1041 113 
L 1041 0 
L 106 0 
L 106 113 
Q 219 128 303 191 
Q 422 281 703 653 
L 1303 1450 
L 759 2238 
Q 528 2575 401 2661 
Q 275 2747 84 2747 
L 84 2863 
z
" transform="scale(0.015625)"/>
       <path id="TimesNewRomanPSMT-70" d="M -6 2578 
L 875 2934 
L 994 2934 
L 994 2266 
Q 1216 2644 1439 2795 
Q 1663 2947 1909 2947 
Q 2341 2947 2628 2609 
Q 2981 2197 2981 1534 
Q 2981 794 2556 309 
Q 2206 -88 1675 -88 
Q 1444 -88 1275 -22 
Q 1150 25 994 166 
L 994 -706 
Q 994 -1000 1030 -1079 
Q 1066 -1159 1155 -1206 
Q 1244 -1253 1478 -1253 
L 1478 -1369 
L -22 -1369 
L -22 -1253 
L 56 -1253 
Q 228 -1256 350 -1188 
Q 409 -1153 442 -1076 
Q 475 -1000 475 -688 
L 475 2019 
Q 475 2297 450 2372 
Q 425 2447 370 2484 
Q 316 2522 222 2522 
Q 147 2522 31 2478 
L -6 2578 
z
M 994 2081 
L 994 1013 
Q 994 666 1022 556 
Q 1066 375 1236 237 
Q 1406 100 1666 100 
Q 1978 100 2172 344 
Q 2425 663 2425 1241 
Q 2425 1897 2138 2250 
Q 1938 2494 1663 2494 
Q 1513 2494 1366 2419 
Q 1253 2363 994 2081 
z
" transform="scale(0.015625)"/>
       <path id="TimesNewRomanPSMT-6f" d="M 1600 2947 
Q 2250 2947 2644 2453 
Q 2978 2031 2978 1484 
Q 2978 1100 2793 706 
Q 2609 313 2286 112 
Q 1963 -88 1566 -88 
Q 919 -88 538 428 
Q 216 863 216 1403 
Q 216 1797 411 2186 
Q 606 2575 925 2761 
Q 1244 2947 1600 2947 
z
M 1503 2744 
Q 1338 2744 1170 2645 
Q 1003 2547 900 2300 
Q 797 2053 797 1666 
Q 797 1041 1045 587 
Q 1294 134 1700 134 
Q 2003 134 2200 384 
Q 2397 634 2397 1244 
Q 2397 2006 2069 2444 
Q 1847 2744 1503 2744 
z
" transform="scale(0.015625)"/>
       <path id="TimesNewRomanPSMT-73" d="M 2050 2947 
L 2050 1972 
L 1947 1972 
Q 1828 2431 1642 2597 
Q 1456 2763 1169 2763 
Q 950 2763 815 2647 
Q 681 2531 681 2391 
Q 681 2216 781 2091 
Q 878 1963 1175 1819 
L 1631 1597 
Q 2266 1288 2266 781 
Q 2266 391 1970 151 
Q 1675 -88 1309 -88 
Q 1047 -88 709 6 
Q 606 38 541 38 
Q 469 38 428 -44 
L 325 -44 
L 325 978 
L 428 978 
Q 516 541 762 319 
Q 1009 97 1316 97 
Q 1531 97 1667 223 
Q 1803 350 1803 528 
Q 1803 744 1651 891 
Q 1500 1038 1047 1263 
Q 594 1488 453 1669 
Q 313 1847 313 2119 
Q 313 2472 555 2709 
Q 797 2947 1181 2947 
Q 1350 2947 1591 2875 
Q 1750 2828 1803 2828 
Q 1853 2828 1881 2850 
Q 1909 2872 1947 2947 
L 2050 2947 
z
" transform="scale(0.015625)"/>
       <path id="TimesNewRomanPSMT-69" d="M 928 4444 
Q 1059 4444 1151 4351 
Q 1244 4259 1244 4128 
Q 1244 3997 1151 3903 
Q 1059 3809 928 3809 
Q 797 3809 703 3903 
Q 609 3997 609 4128 
Q 609 4259 701 4351 
Q 794 4444 928 4444 
z
M 1188 2947 
L 1188 647 
Q 1188 378 1227 289 
Q 1266 200 1342 156 
Q 1419 113 1622 113 
L 1622 0 
L 231 0 
L 231 113 
Q 441 113 512 153 
Q 584 194 626 287 
Q 669 381 669 647 
L 669 1750 
Q 669 2216 641 2353 
Q 619 2453 572 2492 
Q 525 2531 444 2531 
Q 356 2531 231 2484 
L 188 2597 
L 1050 2947 
L 1188 2947 
z
" transform="scale(0.015625)"/>
       <path id="TimesNewRomanPSMT-63" d="M 2631 1088 
Q 2516 522 2178 217 
Q 1841 -88 1431 -88 
Q 944 -88 581 321 
Q 219 731 219 1428 
Q 219 2103 620 2525 
Q 1022 2947 1584 2947 
Q 2006 2947 2278 2723 
Q 2550 2500 2550 2259 
Q 2550 2141 2473 2067 
Q 2397 1994 2259 1994 
Q 2075 1994 1981 2113 
Q 1928 2178 1911 2362 
Q 1894 2547 1784 2644 
Q 1675 2738 1481 2738 
Q 1169 2738 978 2506 
Q 725 2200 725 1697 
Q 725 1184 976 792 
Q 1228 400 1656 400 
Q 1963 400 2206 609 
Q 2378 753 2541 1131 
L 2631 1088 
z
" transform="scale(0.015625)"/>
       <path id="TimesNewRomanPSMT-f3" d="M 1600 2947 
Q 2250 2947 2644 2453 
Q 2978 2031 2978 1484 
Q 2978 1100 2793 706 
Q 2609 313 2286 112 
Q 1963 -88 1566 -88 
Q 919 -88 538 428 
Q 216 863 216 1403 
Q 216 1797 411 2186 
Q 606 2575 925 2761 
Q 1244 2947 1600 2947 
z
M 1503 2744 
Q 1338 2744 1170 2645 
Q 1003 2547 900 2300 
Q 797 2053 797 1666 
Q 797 1041 1045 587 
Q 1294 134 1700 134 
Q 2003 134 2200 384 
Q 2397 634 2397 1244 
Q 2397 2006 2069 2444 
Q 1847 2744 1503 2744 
z
M 2259 4344 
L 1338 3266 
L 1231 3266 
L 1559 4344 
L 2259 4344 
z
" transform="scale(0.015625)"/>
       <path id="TimesNewRomanPSMT-6e" d="M 1034 2341 
Q 1538 2947 1994 2947 
Q 2228 2947 2397 2830 
Q 2566 2713 2666 2444 
Q 2734 2256 2734 1869 
L 2734 647 
Q 2734 375 2778 278 
Q 2813 200 2889 156 
Q 2966 113 3172 113 
L 3172 0 
L 1756 0 
L 1756 113 
L 1816 113 
Q 2016 113 2095 173 
Q 2175 234 2206 353 
Q 2219 400 2219 647 
L 2219 1819 
Q 2219 2209 2117 2386 
Q 2016 2563 1775 2563 
Q 1403 2563 1034 2156 
L 1034 647 
Q 1034 356 1069 288 
Q 1113 197 1189 155 
Q 1266 113 1500 113 
L 1500 0 
L 84 0 
L 84 113 
L 147 113 
Q 366 113 442 223 
Q 519 334 519 647 
L 519 1709 
Q 519 2225 495 2337 
Q 472 2450 423 2490 
Q 375 2531 294 2531 
Q 206 2531 84 2484 
L 38 2597 
L 900 2947 
L 1034 2947 
L 1034 2341 
z
" transform="scale(0.015625)"/>
      </defs>
      <use xlink:href="#TimesNewRomanPSMT-55" transform="translate(0 0.09375)"/>
      <use xlink:href="#TimesNewRomanPSMT-6d" transform="translate(72.216797 0.09375)"/>
      <use xlink:href="#TimesNewRomanPSMT-62" transform="translate(150 0.09375)"/>
      <use xlink:href="#TimesNewRomanPSMT-72" transform="translate(200 0.09375)"/>
      <use xlink:href="#TimesNewRomanPSMT-61" transform="translate(233.300781 0.09375)"/>
      <use xlink:href="#TimesNewRomanPSMT-6c" transform="translate(277.685547 0.09375)"/>
      <use xlink:href="#TimesNewRomanPSMT-20" transform="translate(305.46875 0.09375)"/>
      <use xlink:href="#DejaVuSans-Oblique-4c" transform="translate(330.46875 0.09375)"/>
      <use xlink:href="#TimesNewRomanPSMT-2f" transform="translate(386.181641 0.09375)"/>
      <use xlink:href="#TimesNewRomanPSMT-45" transform="translate(413.964844 0.09375)"/>
      <use xlink:href="#TimesNewRomanPSMT-78" transform="translate(475.048828 0.09375)"/>
      <use xlink:href="#TimesNewRomanPSMT-70" transform="translate(525.048828 0.09375)"/>
      <use xlink:href="#TimesNewRomanPSMT-6f" transform="translate(575.048828 0.09375)"/>
      <use xlink:href="#TimesNewRomanPSMT-73" transform="translate(625.048828 0.09375)"/>
      <use xlink:href="#TimesNewRomanPSMT-69" transform="translate(663.964844 0.09375)"/>
      <use xlink:href="#TimesNewRomanPSMT-63" transform="translate(691.748047 0.09375)"/>
      <use xlink:href="#TimesNewRomanPSMT-69" transform="translate(736.132812 0.09375)"/>
      <use xlink:href="#TimesNewRomanPSMT-f3" transform="translate(763.916016 0.09375)"/>
      <use xlink:href="#TimesNewRomanPSMT-6e" transform="translate(813.916016 0.09375)"/>
     </g>
    </g>
   </g>
   <g id="matplotlib.axis_2">
    <g id="ytick_1">
     <g id="line2d_51">
      <path d="M 43.505 234.987411 
L 260.39952 234.987411 
" clip-path="url(#pf0cd0f96df)" style="fill: none; stroke-dasharray: 2.22,0.96; stroke-dashoffset: 0; stroke: #b0b0b0; stroke-opacity: 0.25; stroke-width: 0.6"/>
     </g>
     <g id="line2d_52">
      <defs>
       <path id="m2ac8f612bf" d="M 0 0 
L -3.5 0 
" style="stroke: #000000; stroke-width: 0.8"/>
      </defs>
      <g>
       <use xlink:href="#m2ac8f612bf" x="43.505" y="234.987411" style="stroke: #000000; stroke-width: 0.8"/>
      </g>
     </g>
     <g id="text_7">
      <!-- $10^{-4}$ -->
      <g transform="translate(18.88 237.635262) scale(0.075 -0.075)">
       <defs>
        <path id="DejaVuSans-31" d="M 794 531 
L 1825 531 
L 1825 4091 
L 703 3866 
L 703 4441 
L 1819 4666 
L 2450 4666 
L 2450 531 
L 3481 531 
L 3481 0 
L 794 0 
L 794 531 
z
" transform="scale(0.015625)"/>
        <path id="DejaVuSans-30" d="M 2034 4250 
Q 1547 4250 1301 3770 
Q 1056 3291 1056 2328 
Q 1056 1369 1301 889 
Q 1547 409 2034 409 
Q 2525 409 2770 889 
Q 3016 1369 3016 2328 
Q 3016 3291 2770 3770 
Q 2525 4250 2034 4250 
z
M 2034 4750 
Q 2819 4750 3233 4129 
Q 3647 3509 3647 2328 
Q 3647 1150 3233 529 
Q 2819 -91 2034 -91 
Q 1250 -91 836 529 
Q 422 1150 422 2328 
Q 422 3509 836 4129 
Q 1250 4750 2034 4750 
z
" transform="scale(0.015625)"/>
        <path id="DejaVuSans-2212" d="M 678 2272 
L 4684 2272 
L 4684 1741 
L 678 1741 
L 678 2272 
z
" transform="scale(0.015625)"/>
        <path id="DejaVuSans-34" d="M 2419 4116 
L 825 1625 
L 2419 1625 
L 2419 4116 
z
M 2253 4666 
L 3047 4666 
L 3047 1625 
L 3713 1625 
L 3713 1100 
L 3047 1100 
L 3047 0 
L 2419 0 
L 2419 1100 
L 313 1100 
L 313 1709 
L 2253 4666 
z
" transform="scale(0.015625)"/>
       </defs>
       <use xlink:href="#DejaVuSans-31" transform="translate(0 0.684375)"/>
       <use xlink:href="#DejaVuSans-30" transform="translate(63.623047 0.684375)"/>
       <use xlink:href="#DejaVuSans-2212" transform="translate(128.203125 38.965625) scale(0.7)"/>
       <use xlink:href="#DejaVuSans-34" transform="translate(186.855469 38.965625) scale(0.7)"/>
      </g>
     </g>
    </g>
    <g id="ytick_2">
     <g id="line2d_53">
      <path d="M 43.505 180.560587 
L 260.39952 180.560587 
" clip-path="url(#pf0cd0f96df)" style="fill: none; stroke-dasharray: 2.22,0.96; stroke-dashoffset: 0; stroke: #b0b0b0; stroke-opacity: 0.25; stroke-width: 0.6"/>
     </g>
     <g id="line2d_54">
      <g>
       <use xlink:href="#m2ac8f612bf" x="43.505" y="180.560587" style="stroke: #000000; stroke-width: 0.8"/>
      </g>
     </g>
     <g id="text_8">
      <!-- $10^{-3}$ -->
      <g transform="translate(18.88 183.245938) scale(0.075 -0.075)">
       <defs>
        <path id="DejaVuSans-33" d="M 2597 2516 
Q 3050 2419 3304 2112 
Q 3559 1806 3559 1356 
Q 3559 666 3084 287 
Q 2609 -91 1734 -91 
Q 1441 -91 1130 -33 
Q 819 25 488 141 
L 488 750 
Q 750 597 1062 519 
Q 1375 441 1716 441 
Q 2309 441 2620 675 
Q 2931 909 2931 1356 
Q 2931 1769 2642 2001 
Q 2353 2234 1838 2234 
L 1294 2234 
L 1294 2753 
L 1863 2753 
Q 2328 2753 2575 2939 
Q 2822 3125 2822 3475 
Q 2822 3834 2567 4026 
Q 2313 4219 1838 4219 
Q 1578 4219 1281 4162 
Q 984 4106 628 3988 
L 628 4550 
Q 988 4650 1302 4700 
Q 1616 4750 1894 4750 
Q 2613 4750 3031 4423 
Q 3450 4097 3450 3541 
Q 3450 3153 3228 2886 
Q 3006 2619 2597 2516 
z
" transform="scale(0.015625)"/>
       </defs>
       <use xlink:href="#DejaVuSans-31" transform="translate(0 0.765625)"/>
       <use xlink:href="#DejaVuSans-30" transform="translate(63.623047 0.765625)"/>
       <use xlink:href="#DejaVuSans-2212" transform="translate(128.203125 39.046875) scale(0.7)"/>
       <use xlink:href="#DejaVuSans-33" transform="translate(186.855469 39.046875) scale(0.7)"/>
      </g>
     </g>
    </g>
    <g id="ytick_3">
     <g id="line2d_55">
      <path d="M 43.505 126.133763 
L 260.39952 126.133763 
" clip-path="url(#pf0cd0f96df)" style="fill: none; stroke-dasharray: 2.22,0.96; stroke-dashoffset: 0; stroke: #b0b0b0; stroke-opacity: 0.25; stroke-width: 0.6"/>
     </g>
     <g id="line2d_56">
      <g>
       <use xlink:href="#m2ac8f612bf" x="43.505" y="126.133763" style="stroke: #000000; stroke-width: 0.8"/>
      </g>
     </g>
     <g id="text_9">
      <!-- $10^{-2}$ -->
      <g transform="translate(18.88 128.819115) scale(0.075 -0.075)">
       <defs>
        <path id="DejaVuSans-32" d="M 1228 531 
L 3431 531 
L 3431 0 
L 469 0 
L 469 531 
Q 828 903 1448 1529 
Q 2069 2156 2228 2338 
Q 2531 2678 2651 2914 
Q 2772 3150 2772 3378 
Q 2772 3750 2511 3984 
Q 2250 4219 1831 4219 
Q 1534 4219 1204 4116 
Q 875 4013 500 3803 
L 500 4441 
Q 881 4594 1212 4672 
Q 1544 4750 1819 4750 
Q 2544 4750 2975 4387 
Q 3406 4025 3406 3419 
Q 3406 3131 3298 2873 
Q 3191 2616 2906 2266 
Q 2828 2175 2409 1742 
Q 1991 1309 1228 531 
z
" transform="scale(0.015625)"/>
       </defs>
       <use xlink:href="#DejaVuSans-31" transform="translate(0 0.765625)"/>
       <use xlink:href="#DejaVuSans-30" transform="translate(63.623047 0.765625)"/>
       <use xlink:href="#DejaVuSans-2212" transform="translate(128.203125 39.046875) scale(0.7)"/>
       <use xlink:href="#DejaVuSans-32" transform="translate(186.855469 39.046875) scale(0.7)"/>
      </g>
     </g>
    </g>
    <g id="ytick_4">
     <g id="line2d_57">
      <path d="M 43.505 71.706939 
L 260.39952 71.706939 
" clip-path="url(#pf0cd0f96df)" style="fill: none; stroke-dasharray: 2.22,0.96; stroke-dashoffset: 0; stroke: #b0b0b0; stroke-opacity: 0.25; stroke-width: 0.6"/>
     </g>
     <g id="line2d_58">
      <g>
       <use xlink:href="#m2ac8f612bf" x="43.505" y="71.706939" style="stroke: #000000; stroke-width: 0.8"/>
      </g>
     </g>
     <g id="text_10">
      <!-- $10^{-1}$ -->
      <g transform="translate(18.88 74.354791) scale(0.075 -0.075)">
       <use xlink:href="#DejaVuSans-31" transform="translate(0 0.684375)"/>
       <use xlink:href="#DejaVuSans-30" transform="translate(63.623047 0.684375)"/>
       <use xlink:href="#DejaVuSans-2212" transform="translate(128.203125 38.965625) scale(0.7)"/>
       <use xlink:href="#DejaVuSans-31" transform="translate(186.855469 38.965625) scale(0.7)"/>
      </g>
     </g>
    </g>
    <g id="ytick_5">
     <g id="line2d_59">
      <defs>
       <path id="mc8a46bb4a1" d="M 0 0 
L -2 0 
" style="stroke: #000000; stroke-width: 0.6"/>
      </defs>
      <g>
       <use xlink:href="#mc8a46bb4a1" x="43.505" y="218.603304" style="stroke: #000000; stroke-width: 0.6"/>
      </g>
     </g>
    </g>
    <g id="ytick_6">
     <g id="line2d_60">
      <g>
       <use xlink:href="#mc8a46bb4a1" x="43.505" y="209.019216" style="stroke: #000000; stroke-width: 0.6"/>
      </g>
     </g>
    </g>
    <g id="ytick_7">
     <g id="line2d_61">
      <g>
       <use xlink:href="#mc8a46bb4a1" x="43.505" y="202.219198" style="stroke: #000000; stroke-width: 0.6"/>
      </g>
     </g>
    </g>
    <g id="ytick_8">
     <g id="line2d_62">
      <g>
       <use xlink:href="#mc8a46bb4a1" x="43.505" y="196.944693" style="stroke: #000000; stroke-width: 0.6"/>
      </g>
     </g>
    </g>
    <g id="ytick_9">
     <g id="line2d_63">
      <g>
       <use xlink:href="#mc8a46bb4a1" x="43.505" y="192.63511" style="stroke: #000000; stroke-width: 0.6"/>
      </g>
     </g>
    </g>
    <g id="ytick_10">
     <g id="line2d_64">
      <g>
       <use xlink:href="#mc8a46bb4a1" x="43.505" y="188.991409" style="stroke: #000000; stroke-width: 0.6"/>
      </g>
     </g>
    </g>
    <g id="ytick_11">
     <g id="line2d_65">
      <g>
       <use xlink:href="#mc8a46bb4a1" x="43.505" y="185.835091" style="stroke: #000000; stroke-width: 0.6"/>
      </g>
     </g>
    </g>
    <g id="ytick_12">
     <g id="line2d_66">
      <g>
       <use xlink:href="#mc8a46bb4a1" x="43.505" y="183.051022" style="stroke: #000000; stroke-width: 0.6"/>
      </g>
     </g>
    </g>
    <g id="ytick_13">
     <g id="line2d_67">
      <g>
       <use xlink:href="#mc8a46bb4a1" x="43.505" y="164.17648" style="stroke: #000000; stroke-width: 0.6"/>
      </g>
     </g>
    </g>
    <g id="ytick_14">
     <g id="line2d_68">
      <g>
       <use xlink:href="#mc8a46bb4a1" x="43.505" y="154.592392" style="stroke: #000000; stroke-width: 0.6"/>
      </g>
     </g>
    </g>
    <g id="ytick_15">
     <g id="line2d_69">
      <g>
       <use xlink:href="#mc8a46bb4a1" x="43.505" y="147.792374" style="stroke: #000000; stroke-width: 0.6"/>
      </g>
     </g>
    </g>
    <g id="ytick_16">
     <g id="line2d_70">
      <g>
       <use xlink:href="#mc8a46bb4a1" x="43.505" y="142.51787" style="stroke: #000000; stroke-width: 0.6"/>
      </g>
     </g>
    </g>
    <g id="ytick_17">
     <g id="line2d_71">
      <g>
       <use xlink:href="#mc8a46bb4a1" x="43.505" y="138.208286" style="stroke: #000000; stroke-width: 0.6"/>
      </g>
     </g>
    </g>
    <g id="ytick_18">
     <g id="line2d_72">
      <g>
       <use xlink:href="#mc8a46bb4a1" x="43.505" y="134.564585" style="stroke: #000000; stroke-width: 0.6"/>
      </g>
     </g>
    </g>
    <g id="ytick_19">
     <g id="line2d_73">
      <g>
       <use xlink:href="#mc8a46bb4a1" x="43.505" y="131.408267" style="stroke: #000000; stroke-width: 0.6"/>
      </g>
     </g>
    </g>
    <g id="ytick_20">
     <g id="line2d_74">
      <g>
       <use xlink:href="#mc8a46bb4a1" x="43.505" y="128.624198" style="stroke: #000000; stroke-width: 0.6"/>
      </g>
     </g>
    </g>
    <g id="ytick_21">
     <g id="line2d_75">
      <g>
       <use xlink:href="#mc8a46bb4a1" x="43.505" y="109.749657" style="stroke: #000000; stroke-width: 0.6"/>
      </g>
     </g>
    </g>
    <g id="ytick_22">
     <g id="line2d_76">
      <g>
       <use xlink:href="#mc8a46bb4a1" x="43.505" y="100.165569" style="stroke: #000000; stroke-width: 0.6"/>
      </g>
     </g>
    </g>
    <g id="ytick_23">
     <g id="line2d_77">
      <g>
       <use xlink:href="#mc8a46bb4a1" x="43.505" y="93.36555" style="stroke: #000000; stroke-width: 0.6"/>
      </g>
     </g>
    </g>
    <g id="ytick_24">
     <g id="line2d_78">
      <g>
       <use xlink:href="#mc8a46bb4a1" x="43.505" y="88.091046" style="stroke: #000000; stroke-width: 0.6"/>
      </g>
     </g>
    </g>
    <g id="ytick_25">
     <g id="line2d_79">
      <g>
       <use xlink:href="#mc8a46bb4a1" x="43.505" y="83.781462" style="stroke: #000000; stroke-width: 0.6"/>
      </g>
     </g>
    </g>
    <g id="ytick_26">
     <g id="line2d_80">
      <g>
       <use xlink:href="#mc8a46bb4a1" x="43.505" y="80.137761" style="stroke: #000000; stroke-width: 0.6"/>
      </g>
     </g>
    </g>
    <g id="ytick_27">
     <g id="line2d_81">
      <g>
       <use xlink:href="#mc8a46bb4a1" x="43.505" y="76.981444" style="stroke: #000000; stroke-width: 0.6"/>
      </g>
     </g>
    </g>
    <g id="ytick_28">
     <g id="line2d_82">
      <g>
       <use xlink:href="#mc8a46bb4a1" x="43.505" y="74.197374" style="stroke: #000000; stroke-width: 0.6"/>
      </g>
     </g>
    </g>
    <g id="ytick_29">
     <g id="line2d_83">
      <g>
       <use xlink:href="#mc8a46bb4a1" x="43.505" y="55.322833" style="stroke: #000000; stroke-width: 0.6"/>
      </g>
     </g>
    </g>
    <g id="ytick_30">
     <g id="line2d_84">
      <g>
       <use xlink:href="#mc8a46bb4a1" x="43.505" y="45.738745" style="stroke: #000000; stroke-width: 0.6"/>
      </g>
     </g>
    </g>
    <g id="ytick_31">
     <g id="line2d_85">
      <g>
       <use xlink:href="#mc8a46bb4a1" x="43.505" y="38.938726" style="stroke: #000000; stroke-width: 0.6"/>
      </g>
     </g>
    </g>
    <g id="ytick_32">
     <g id="line2d_86">
      <g>
       <use xlink:href="#mc8a46bb4a1" x="43.505" y="33.664222" style="stroke: #000000; stroke-width: 0.6"/>
      </g>
     </g>
    </g>
    <g id="ytick_33">
     <g id="line2d_87">
      <g>
       <use xlink:href="#mc8a46bb4a1" x="43.505" y="29.354638" style="stroke: #000000; stroke-width: 0.6"/>
      </g>
     </g>
    </g>
    <g id="ytick_34">
     <g id="line2d_88">
      <g>
       <use xlink:href="#mc8a46bb4a1" x="43.505" y="25.710937" style="stroke: #000000; stroke-width: 0.6"/>
      </g>
     </g>
    </g>
    <g id="ytick_35">
     <g id="line2d_89">
      <g>
       <use xlink:href="#mc8a46bb4a1" x="43.505" y="22.55462" style="stroke: #000000; stroke-width: 0.6"/>
      </g>
     </g>
    </g>
    <g id="text_11">
     <!-- $\lambda(L)$ [1/año] -->
     <g transform="translate(13.16875 147.776127) rotate(-90) scale(0.08 -0.08)">
      <defs>
       <path id="DejaVuSans-Oblique-3bb" d="M 2350 4316 
L 3125 0 
L 2516 0 
L 2038 2588 
L 328 0 
L -281 0 
L 1903 3356 
L 1794 3975 
Q 1725 4369 1391 4369 
L 1091 4369 
L 1184 4863 
L 1550 4856 
Q 2253 4847 2350 4316 
z
" transform="scale(0.015625)"/>
       <path id="DejaVuSans-28" d="M 1984 4856 
Q 1566 4138 1362 3434 
Q 1159 2731 1159 2009 
Q 1159 1288 1364 580 
Q 1569 -128 1984 -844 
L 1484 -844 
Q 1016 -109 783 600 
Q 550 1309 550 2009 
Q 550 2706 781 3412 
Q 1013 4119 1484 4856 
L 1984 4856 
z
" transform="scale(0.015625)"/>
       <path id="DejaVuSans-29" d="M 513 4856 
L 1013 4856 
Q 1481 4119 1714 3412 
Q 1947 2706 1947 2009 
Q 1947 1309 1714 600 
Q 1481 -109 1013 -844 
L 513 -844 
Q 928 -128 1133 580 
Q 1338 1288 1338 2009 
Q 1338 2731 1133 3434 
Q 928 4138 513 4856 
z
" transform="scale(0.015625)"/>
       <path id="TimesNewRomanPSMT-5b" d="M 1900 -1269 
L 525 -1269 
L 525 4334 
L 1900 4334 
L 1900 4088 
L 994 4088 
L 994 -1025 
L 1900 -1025 
L 1900 -1269 
z
" transform="scale(0.015625)"/>
       <path id="TimesNewRomanPSMT-f1" d="M 1034 2341 
Q 1538 2947 1994 2947 
Q 2228 2947 2397 2830 
Q 2566 2713 2666 2444 
Q 2734 2256 2734 1869 
L 2734 647 
Q 2734 375 2778 278 
Q 2813 200 2889 156 
Q 2966 113 3172 113 
L 3172 0 
L 1756 0 
L 1756 113 
L 1816 113 
Q 2016 113 2095 173 
Q 2175 234 2206 353 
Q 2219 400 2219 647 
L 2219 1819 
Q 2219 2209 2117 2386 
Q 2016 2563 1775 2563 
Q 1403 2563 1034 2156 
L 1034 647 
Q 1034 356 1069 288 
Q 1113 197 1189 155 
Q 1266 113 1500 113 
L 1500 0 
L 84 0 
L 84 113 
L 147 113 
Q 366 113 442 223 
Q 519 334 519 647 
L 519 1709 
Q 519 2225 495 2337 
Q 472 2450 423 2490 
Q 375 2531 294 2531 
Q 206 2531 84 2484 
L 38 2597 
L 900 2947 
L 1034 2947 
L 1034 2341 
z
M 703 3428 
L 603 3428 
Q 616 3856 781 4047 
Q 947 4238 1191 4238 
Q 1319 4238 1425 4197 
Q 1566 4144 1823 3973 
Q 2081 3803 2206 3803 
Q 2306 3803 2382 3887 
Q 2459 3972 2503 4238 
L 2600 4238 
Q 2603 3947 2523 3776 
Q 2444 3606 2298 3511 
Q 2153 3416 2006 3416 
Q 1759 3416 1394 3666 
Q 1197 3800 1128 3828 
Q 1059 3856 994 3856 
Q 866 3856 791 3744 
Q 756 3691 703 3428 
z
" transform="scale(0.015625)"/>
       <path id="TimesNewRomanPSMT-5d" d="M 234 4334 
L 1609 4334 
L 1609 -1272 
L 234 -1272 
L 234 -1025 
L 1141 -1025 
L 1141 4088 
L 234 4088 
L 234 4334 
z
" transform="scale(0.015625)"/>
      </defs>
      <use xlink:href="#DejaVuSans-Oblique-3bb" transform="translate(0 0.015625)"/>
      <use xlink:href="#DejaVuSans-28" transform="translate(59.179688 0.015625)"/>
      <use xlink:href="#DejaVuSans-Oblique-4c" transform="translate(98.193359 0.015625)"/>
      <use xlink:href="#DejaVuSans-29" transform="translate(153.90625 0.015625)"/>
      <use xlink:href="#TimesNewRomanPSMT-20" transform="translate(192.919922 0.015625)"/>
      <use xlink:href="#TimesNewRomanPSMT-5b" transform="translate(217.919922 0.015625)"/>
      <use xlink:href="#TimesNewRomanPSMT-31" transform="translate(251.220703 0.015625)"/>
      <use xlink:href="#TimesNewRomanPSMT-2f" transform="translate(301.220703 0.015625)"/>
      <use xlink:href="#TimesNewRomanPSMT-61" transform="translate(329.003906 0.015625)"/>
      <use xlink:href="#TimesNewRomanPSMT-f1" transform="translate(373.388672 0.015625)"/>
      <use xlink:href="#TimesNewRomanPSMT-6f" transform="translate(423.388672 0.015625)"/>
      <use xlink:href="#TimesNewRomanPSMT-5d" transform="translate(473.388672 0.015625)"/>
     </g>
    </g>
   </g>
   <g id="line2d_90">
    <path d="M 43.505 66.284009 
L 46.087078 66.994792 
L 48.669155 67.68522 
L 51.251233 68.36083 
L 53.83331 69.028867 
L 56.415388 69.688122 
L 58.997466 70.346132 
L 61.579543 70.996849 
L 64.161621 71.642285 
L 66.743699 72.283406 
L 69.325776 72.922407 
L 71.907854 73.556634 
L 74.489931 74.187299 
L 77.072009 74.816356 
L 79.654087 75.452524 
L 82.236164 76.099983 
L 84.818242 76.757827 
L 87.40032 77.429865 
L 89.982397 78.121111 
L 92.564475 78.836455 
L 95.146552 79.58138 
L 97.72863 80.359199 
L 100.310708 81.175594 
L 102.892785 82.027379 
L 105.474863 82.928987 
L 108.05694 83.878383 
L 110.639018 84.880224 
L 113.221096 85.929356 
L 115.803173 87.037871 
L 118.385251 88.206249 
L 120.967329 89.424084 
L 123.549406 90.692574 
L 126.131484 92.006168 
L 128.713561 93.144284 
L 131.295639 94.21247 
L 133.877717 95.284328 
L 136.459794 96.381009 
L 139.041872 97.49883 
L 141.62395 98.660257 
L 144.206027 99.879441 
L 146.788105 101.158305 
L 149.370182 102.49189 
L 151.95226 103.885923 
L 154.534338 105.342074 
L 157.116415 106.82791 
L 159.698493 108.378076 
L 162.28057 110.005441 
L 164.862648 111.683366 
L 167.444726 113.486326 
L 170.026803 115.44948 
L 172.608881 117.49734 
L 175.190959 119.683579 
L 177.773036 121.905971 
L 180.355114 124.158853 
L 182.937191 126.393402 
L 185.519269 128.616871 
L 188.101347 130.878642 
L 190.683424 133.17838 
L 193.265502 135.549824 
L 195.84758 137.974283 
L 198.429657 140.484992 
L 201.011735 143.064599 
L 203.593812 145.749073 
L 206.17589 148.573149 
L 208.757968 151.547359 
L 211.340045 154.667745 
L 213.922123 157.880516 
L 216.5042 161.298557 
L 219.086278 164.862676 
L 221.668356 168.650955 
L 224.250433 172.577366 
L 226.832511 176.731458 
L 229.414589 181.151993 
L 231.996666 185.913854 
L 234.578744 191.003205 
L 237.160821 196.549236 
L 239.742899 202.666604 
L 242.324977 209.446234 
L 244.907054 217.080768 
L 247.489132 226.28895 
L 250.07121 237.229229 
L 252.653287 250.955823 
L 254.861345 268.59952 
" clip-path="url(#pf0cd0f96df)" style="fill: none; stroke: #1f77b4; stroke-width: 2; stroke-linecap: square"/>
   </g>
   <g id="line2d_91">
    <path d="M 43.505 66.309894 
L 46.087078 67.021468 
L 48.669155 67.712688 
L 51.251233 68.389094 
L 53.83331 69.057942 
L 56.415388 69.71802 
L 58.997466 70.376875 
L 61.579543 71.02845 
L 64.161621 71.674761 
L 66.743699 72.316776 
L 69.325776 72.956692 
L 71.907854 73.591852 
L 74.489931 74.22347 
L 77.072009 74.853503 
L 79.654087 75.490685 
L 82.236164 76.139206 
L 84.818242 76.798157 
L 87.40032 77.47136 
L 89.982397 78.163838 
L 92.564475 78.880496 
L 95.146552 79.626832 
L 97.72863 80.406173 
L 100.310708 81.224221 
L 102.892785 82.077792 
L 105.474863 82.981362 
L 108.05694 83.932907 
L 110.639018 84.937105 
L 113.221096 85.988822 
L 115.803173 87.100188 
L 118.385251 88.271729 
L 120.967329 89.493022 
L 123.549406 90.765311 
L 126.131484 92.083059 
L 128.713561 93.224975 
L 131.295639 94.296877 
L 133.877717 95.372648 
L 136.459794 96.473444 
L 139.041872 97.595728 
L 141.62395 98.76201 
L 144.206027 99.986542 
L 146.788105 101.271294 
L 149.370182 102.611299 
L 151.95226 104.0125 
L 154.534338 105.476621 
L 157.116415 106.970841 
L 159.698493 108.530382 
L 162.28057 110.168038 
L 164.862648 111.857218 
L 167.444726 113.673001 
L 170.026803 115.650873 
L 172.608881 117.715415 
L 175.190959 119.920783 
L 177.773036 122.163176 
L 180.355114 124.437781 
L 182.937191 126.694113 
L 185.519269 128.940966 
L 188.101347 131.226021 
L 190.683424 133.549906 
L 193.265502 135.944903 
L 195.84758 138.394238 
L 198.429657 140.927442 
L 201.011735 143.534792 
L 203.593812 146.24715 
L 206.17589 149.099203 
L 208.757968 152.102491 
L 211.340045 155.250346 
L 213.922123 158.487331 
L 216.5042 161.921009 
L 219.086278 165.500138 
L 221.668356 169.304422 
L 224.250433 173.244041 
L 226.832511 177.412992 
L 229.414589 181.837318 
L 231.996666 186.605229 
L 234.578744 191.686665 
L 237.160821 197.218483 
L 239.742899 203.310545 
L 242.324977 210.070339 
L 244.907054 217.69457 
L 247.489132 226.871297 
L 250.07121 237.767668 
L 252.653287 251.363893 
L 254.820909 268.59952 
" clip-path="url(#pf0cd0f96df)" style="fill: none; stroke-dasharray: 5.92,2.56; stroke-dashoffset: 0; stroke: #1f77b4; stroke-width: 1.6"/>
   </g>
   <g id="line2d_92">
    <path d="M 43.505 45.711274 
L 46.087078 45.92791 
L 48.669155 46.129421 
L 51.251233 46.324983 
L 53.83331 46.534838 
L 56.415388 46.776583 
L 58.997466 47.068431 
L 61.579543 47.335991 
L 64.161621 47.636717 
L 66.743699 47.939755 
L 69.325776 48.287393 
L 71.907854 48.631531 
L 74.489931 48.973619 
L 77.072009 49.326172 
L 79.654087 49.687553 
L 82.236164 50.078532 
L 84.818242 50.486094 
L 87.40032 50.920707 
L 89.982397 51.360531 
L 92.564475 51.827332 
L 95.146552 52.299797 
L 97.72863 52.778159 
L 100.310708 53.268136 
L 102.892785 53.770609 
L 105.474863 54.285311 
L 108.05694 54.811368 
L 110.639018 55.353665 
L 113.221096 55.90773 
L 115.803173 56.47743 
L 118.385251 57.062633 
L 120.967329 57.660407 
L 123.549406 58.274005 
L 126.131484 58.901057 
L 128.713561 59.541895 
L 131.295639 60.195364 
L 133.877717 60.858812 
L 136.459794 61.529926 
L 139.041872 62.218744 
L 141.62395 63.092342 
L 144.206027 64.04332 
L 146.788105 64.99661 
L 149.370182 65.967884 
L 151.95226 66.958329 
L 154.534338 67.969957 
L 157.116415 69.008968 
L 159.698493 70.077991 
L 162.28057 71.187962 
L 164.862648 72.343633 
L 167.444726 73.540709 
L 170.026803 74.786709 
L 172.608881 76.082676 
L 175.190959 77.433066 
L 177.773036 78.844874 
L 180.355114 80.308005 
L 182.937191 81.824806 
L 185.519269 83.398493 
L 188.101347 85.024971 
L 190.683424 86.716382 
L 193.265502 88.46683 
L 195.84758 90.288809 
L 198.429657 92.168372 
L 201.011735 94.129377 
L 203.593812 96.178496 
L 206.17589 98.316386 
L 208.757968 100.54424 
L 211.340045 102.883969 
L 213.922123 105.340302 
L 216.5042 107.943996 
L 219.086278 110.701575 
L 221.668356 113.634865 
L 224.250433 116.784902 
L 226.832511 120.188391 
L 229.414589 123.899163 
L 231.996666 127.953244 
L 234.578744 132.421339 
L 237.160821 137.414477 
L 239.742899 143.097005 
L 242.324977 149.627239 
L 244.907054 157.264545 
L 247.489132 166.443883 
L 250.07121 177.825028 
L 252.653287 192.35403 
L 255.235365 212.246807 
L 257.817442 243.461844 
L 257.81864 268.59952 
" clip-path="url(#pf0cd0f96df)" style="fill: none; stroke: #ff7f0e; stroke-width: 2; stroke-linecap: square"/>
   </g>
   <g id="line2d_93">
    <path d="M 43.505 45.722112 
L 46.087078 45.938848 
L 48.669155 46.140453 
L 51.251233 46.336106 
L 53.83331 46.54606 
L 56.415388 46.78792 
L 58.997466 47.079909 
L 61.579543 47.3476 
L 64.161621 47.648474 
L 66.743699 47.951664 
L 69.325776 48.299479 
L 71.907854 48.643794 
L 74.489931 48.986061 
L 77.072009 49.338801 
L 79.654087 49.700377 
L 82.236164 50.091569 
L 84.818242 50.499358 
L 87.40032 50.934217 
L 89.982397 51.374296 
L 92.564475 51.841371 
L 95.146552 52.31412 
L 97.72863 52.792775 
L 100.310708 53.283057 
L 102.892785 53.785851 
L 105.474863 54.300889 
L 108.05694 54.827297 
L 110.639018 55.369964 
L 113.221096 55.924415 
L 115.803173 56.494522 
L 118.385251 57.080153 
L 120.967329 57.678377 
L 123.549406 58.292447 
L 126.131484 58.919996 
L 128.713561 59.561354 
L 131.295639 60.215369 
L 133.877717 60.879386 
L 136.459794 61.551093 
L 139.041872 62.240537 
L 141.62395 63.114957 
L 144.206027 64.066864 
L 146.788105 65.021123 
L 149.370182 65.993425 
L 151.95226 66.984964 
L 154.534338 67.997758 
L 157.116415 69.038019 
L 159.698493 70.108386 
L 162.28057 71.21982 
L 164.862648 72.377088 
L 167.444726 73.575903 
L 170.026803 74.82381 
L 172.608881 76.12187 
L 175.190959 77.474566 
L 177.773036 78.888931 
L 180.355114 80.354878 
L 182.937191 81.874789 
L 185.519269 83.451914 
L 188.101347 85.082195 
L 190.683424 86.77785 
L 193.265502 88.533014 
L 195.84758 90.360261 
L 198.429657 92.245666 
L 201.011735 94.21331 
L 203.593812 96.269947 
L 206.17589 98.416289 
L 208.757968 100.653689 
L 211.340045 103.004463 
L 213.922123 105.473312 
L 216.5042 108.091585 
L 219.086278 110.865891 
L 221.668356 113.81869 
L 224.250433 116.991267 
L 226.832511 120.4208 
L 229.414589 124.162676 
L 231.996666 128.252081 
L 234.578744 132.761226 
L 237.160821 137.801334 
L 239.742899 143.538772 
L 242.324977 150.128801 
L 244.907054 157.824208 
L 247.489132 167.052346 
L 250.07121 178.48444 
L 252.653287 193.005905 
L 255.235365 212.845774 
L 257.817442 243.902439 
L 257.818619 268.59952 
" clip-path="url(#pf0cd0f96df)" style="fill: none; stroke-dasharray: 5.92,2.56; stroke-dashoffset: 0; stroke: #ff7f0e; stroke-width: 1.6"/>
   </g>
   <g id="patch_3">
    <path d="M 43.505 234.987411 
L 43.505 20.004844 
" style="fill: none; stroke: #000000; stroke-width: 0.8; stroke-linejoin: miter; stroke-linecap: square"/>
   </g>
   <g id="patch_4">
    <path d="M 43.505 234.987411 
L 260.39952 234.987411 
" style="fill: none; stroke: #000000; stroke-width: 0.8; stroke-linejoin: miter; stroke-linecap: square"/>
   </g>
   <g id="text_12" display="none">
    <!-- Tasa de excedencia $\lambda(L)$ (con vs sin FSR) -->
    <g transform="translate(73.11226 14.004844) scale(0.09 -0.09)">
     <defs>
      <path id="TimesNewRomanPS-BoldMT-54" d="M 4038 4238 
L 4038 3091 
L 3925 3091 
Q 3825 3488 3703 3661 
Q 3581 3834 3369 3938 
Q 3250 3994 2953 3994 
L 2638 3994 
L 2638 725 
Q 2638 400 2673 319 
Q 2709 238 2814 177 
Q 2919 116 3100 116 
L 3241 116 
L 3241 0 
L 1022 0 
L 1022 116 
L 1163 116 
Q 1347 116 1459 181 
Q 1541 225 1588 331 
Q 1622 406 1622 725 
L 1622 3994 
L 1316 3994 
Q 888 3994 694 3813 
Q 422 3559 350 3091 
L 231 3091 
L 231 4238 
L 4038 4238 
z
" transform="scale(0.015625)"/>
      <path id="TimesNewRomanPS-BoldMT-61" d="M 1828 431 
Q 1294 -41 869 -41 
Q 619 -41 453 123 
Q 288 288 288 534 
Q 288 869 575 1136 
Q 863 1403 1828 1847 
L 1828 2141 
Q 1828 2472 1792 2558 
Q 1756 2644 1656 2708 
Q 1556 2772 1431 2772 
Q 1228 2772 1097 2681 
Q 1016 2625 1016 2550 
Q 1016 2484 1103 2388 
Q 1222 2253 1222 2128 
Q 1222 1975 1108 1867 
Q 994 1759 809 1759 
Q 613 1759 480 1878 
Q 347 1997 347 2156 
Q 347 2381 525 2586 
Q 703 2791 1022 2900 
Q 1341 3009 1684 3009 
Q 2100 3009 2342 2832 
Q 2584 2656 2656 2450 
Q 2700 2319 2700 1847 
L 2700 713 
Q 2700 513 2715 461 
Q 2731 409 2762 384 
Q 2794 359 2834 359 
Q 2916 359 3000 475 
L 3094 400 
Q 2938 169 2770 64 
Q 2603 -41 2391 -41 
Q 2141 -41 2000 76 
Q 1859 194 1828 431 
z
M 1828 659 
L 1828 1638 
Q 1450 1416 1266 1163 
Q 1144 994 1144 822 
Q 1144 678 1247 569 
Q 1325 484 1466 484 
Q 1622 484 1828 659 
z
" transform="scale(0.015625)"/>
      <path id="TimesNewRomanPS-BoldMT-73" d="M 2063 3003 
L 2109 2006 
L 2003 2006 
Q 1813 2450 1608 2612 
Q 1403 2775 1200 2775 
Q 1072 2775 981 2689 
Q 891 2603 891 2491 
Q 891 2406 953 2328 
Q 1053 2200 1512 1889 
Q 1972 1578 2117 1361 
Q 2263 1144 2263 875 
Q 2263 631 2141 397 
Q 2019 163 1797 37 
Q 1575 -88 1306 -88 
Q 1097 -88 747 44 
Q 653 78 619 78 
Q 516 78 447 -78 
L 344 -78 
L 294 972 
L 400 972 
Q 541 559 786 353 
Q 1031 147 1250 147 
Q 1400 147 1495 239 
Q 1591 331 1591 463 
Q 1591 613 1497 722 
Q 1403 831 1078 1053 
Q 600 1384 459 1559 
Q 253 1816 253 2125 
Q 253 2463 486 2736 
Q 719 3009 1159 3009 
Q 1397 3009 1619 2894 
Q 1703 2847 1756 2847 
Q 1813 2847 1847 2870 
Q 1881 2894 1956 3003 
L 2063 3003 
z
" transform="scale(0.015625)"/>
      <path id="TimesNewRomanPS-BoldMT-20" transform="scale(0.015625)"/>
      <path id="TimesNewRomanPS-BoldMT-64" d="M 3056 4238 
L 3056 875 
Q 3056 534 3075 472 
Q 3100 369 3170 319 
Q 3241 269 3416 256 
L 3416 153 
L 2181 -88 
L 2181 375 
Q 1959 106 1786 9 
Q 1613 -88 1394 -88 
Q 834 -88 509 413 
Q 247 819 247 1409 
Q 247 1881 409 2254 
Q 572 2628 855 2818 
Q 1138 3009 1463 3009 
Q 1672 3009 1834 2928 
Q 1997 2847 2181 2644 
L 2181 3525 
Q 2181 3859 2153 3928 
Q 2116 4019 2041 4062 
Q 1966 4106 1759 4106 
L 1759 4238 
L 3056 4238 
z
M 2181 2256 
Q 1950 2700 1616 2700 
Q 1500 2700 1425 2638 
Q 1309 2541 1236 2297 
Q 1163 2053 1163 1550 
Q 1163 997 1244 731 
Q 1325 466 1466 347 
Q 1538 288 1663 288 
Q 1938 288 2181 719 
L 2181 2256 
z
" transform="scale(0.015625)"/>
      <path id="TimesNewRomanPS-BoldMT-65" d="M 2691 1566 
L 1088 1566 
Q 1116 984 1397 647 
Q 1613 388 1916 388 
Q 2103 388 2256 492 
Q 2409 597 2584 869 
L 2691 800 
Q 2453 316 2165 114 
Q 1878 -88 1500 -88 
Q 850 -88 516 413 
Q 247 816 247 1413 
Q 247 2144 642 2576 
Q 1038 3009 1569 3009 
Q 2013 3009 2339 2645 
Q 2666 2281 2691 1566 
z
M 1922 1775 
Q 1922 2278 1867 2465 
Q 1813 2653 1697 2750 
Q 1631 2806 1522 2806 
Q 1359 2806 1256 2647 
Q 1072 2369 1072 1884 
L 1072 1775 
L 1922 1775 
z
" transform="scale(0.015625)"/>
      <path id="TimesNewRomanPS-BoldMT-78" d="M 1944 1791 
L 2450 828 
Q 2713 325 2866 191 
Q 2950 119 3097 113 
L 3097 0 
L 1469 0 
L 1469 113 
Q 1659 128 1704 162 
Q 1750 197 1750 256 
Q 1750 344 1650 531 
L 1397 1006 
L 1181 691 
Q 1034 475 1016 434 
Q 991 375 991 328 
Q 991 256 1020 207 
Q 1050 159 1101 136 
Q 1153 113 1291 113 
L 1291 0 
L 147 0 
L 147 113 
Q 359 113 536 230 
Q 713 347 1050 844 
L 1291 1200 
L 788 2131 
Q 541 2588 419 2691 
Q 297 2794 147 2806 
L 147 2922 
L 1766 2922 
L 1766 2806 
L 1681 2803 
L 1519 2747 
Q 1494 2725 1494 2675 
Q 1494 2628 1509 2578 
Q 1519 2556 1597 2409 
L 1825 1984 
L 1944 2153 
Q 2194 2497 2194 2634 
Q 2194 2700 2139 2745 
Q 2084 2791 1944 2806 
L 1944 2922 
L 2978 2922 
L 2978 2806 
Q 2788 2800 2622 2689 
Q 2456 2578 2250 2259 
L 1944 1791 
z
" transform="scale(0.015625)"/>
      <path id="TimesNewRomanPS-BoldMT-63" d="M 2600 753 
L 2697 678 
Q 2491 291 2183 101 
Q 1875 -88 1528 -88 
Q 944 -88 594 353 
Q 244 794 244 1413 
Q 244 2009 563 2463 
Q 947 3009 1622 3009 
Q 2075 3009 2342 2781 
Q 2609 2553 2609 2272 
Q 2609 2094 2501 1987 
Q 2394 1881 2219 1881 
Q 2034 1881 1914 2003 
Q 1794 2125 1766 2438 
Q 1747 2634 1675 2713 
Q 1603 2791 1506 2791 
Q 1356 2791 1250 2631 
Q 1088 2391 1088 1894 
Q 1088 1481 1219 1104 
Q 1350 728 1578 544 
Q 1750 409 1984 409 
Q 2138 409 2275 481 
Q 2413 553 2600 753 
z
" transform="scale(0.015625)"/>
      <path id="TimesNewRomanPS-BoldMT-6e" d="M 1409 2922 
L 1409 2544 
Q 1634 2788 1840 2898 
Q 2047 3009 2284 3009 
Q 2569 3009 2756 2851 
Q 2944 2694 3006 2459 
Q 3056 2281 3056 1775 
L 3056 638 
Q 3056 300 3117 217 
Q 3178 134 3372 113 
L 3372 0 
L 1894 0 
L 1894 113 
Q 2059 134 2131 250 
Q 2181 328 2181 638 
L 2181 1938 
Q 2181 2297 2153 2390 
Q 2125 2484 2058 2536 
Q 1991 2588 1909 2588 
Q 1641 2588 1409 2203 
L 1409 638 
Q 1409 309 1470 221 
Q 1531 134 1697 113 
L 1697 0 
L 219 0 
L 219 113 
Q 403 131 481 231 
Q 534 300 534 638 
L 534 2288 
Q 534 2619 473 2700 
Q 413 2781 219 2806 
L 219 2922 
L 1409 2922 
z
" transform="scale(0.015625)"/>
      <path id="TimesNewRomanPS-BoldMT-69" d="M 919 4338 
Q 1122 4338 1262 4195 
Q 1403 4053 1403 3853 
Q 1403 3653 1261 3512 
Q 1119 3372 919 3372 
Q 719 3372 578 3512 
Q 438 3653 438 3853 
Q 438 4053 578 4195 
Q 719 4338 919 4338 
z
M 1356 2922 
L 1356 606 
Q 1356 297 1428 211 
Q 1500 125 1709 113 
L 1709 0 
L 131 0 
L 131 113 
Q 325 119 419 225 
Q 481 297 481 606 
L 481 2313 
Q 481 2622 409 2708 
Q 338 2794 131 2806 
L 131 2922 
L 1356 2922 
z
" transform="scale(0.015625)"/>
      <path id="TimesNewRomanPS-BoldMT-28" d="M 2056 4334 
L 2056 4191 
Q 1731 3978 1578 3775 
Q 1366 3494 1247 3053 
Q 1097 2506 1097 1525 
Q 1097 600 1233 87 
Q 1369 -425 1603 -741 
Q 1766 -959 2056 -1125 
L 2056 -1281 
Q 1303 -1028 779 -248 
Q 256 531 256 1544 
Q 256 2544 778 3314 
Q 1300 4084 2056 4334 
z
" transform="scale(0.015625)"/>
      <path id="TimesNewRomanPS-BoldMT-6f" d="M 1594 3009 
Q 1975 3009 2303 2812 
Q 2631 2616 2801 2253 
Q 2972 1891 2972 1459 
Q 2972 838 2656 419 
Q 2275 -88 1603 -88 
Q 944 -88 587 375 
Q 231 838 231 1447 
Q 231 2075 595 2542 
Q 959 3009 1594 3009 
z
M 1606 2788 
Q 1447 2788 1333 2667 
Q 1219 2547 1183 2192 
Q 1147 1838 1147 1206 
Q 1147 872 1191 581 
Q 1225 359 1337 243 
Q 1450 128 1594 128 
Q 1734 128 1828 206 
Q 1950 313 1991 503 
Q 2053 800 2053 1703 
Q 2053 2234 1993 2432 
Q 1934 2631 1819 2722 
Q 1738 2788 1606 2788 
z
" transform="scale(0.015625)"/>
      <path id="TimesNewRomanPS-BoldMT-76" d="M 1534 -88 
L 550 2178 
Q 372 2588 272 2697 
Q 200 2778 59 2806 
L 59 2922 
L 1613 2922 
L 1613 2806 
Q 1466 2806 1413 2753 
Q 1338 2684 1338 2591 
Q 1338 2475 1475 2156 
L 1956 1059 
L 2341 2006 
Q 2506 2413 2506 2581 
Q 2506 2678 2436 2739 
Q 2366 2800 2188 2806 
L 2188 2922 
L 3144 2922 
L 3144 2806 
Q 3006 2788 2918 2703 
Q 2831 2619 2656 2206 
L 1681 -88 
L 1534 -88 
z
" transform="scale(0.015625)"/>
      <path id="TimesNewRomanPS-BoldMT-46" d="M 1759 3994 
L 1759 2253 
L 1881 2253 
Q 2163 2253 2341 2337 
Q 2519 2422 2642 2622 
Q 2766 2822 2803 3163 
L 2913 3163 
L 2913 1034 
L 2803 1034 
Q 2744 1638 2480 1830 
Q 2216 2022 1881 2022 
L 1759 2022 
L 1759 725 
Q 1759 400 1795 319 
Q 1831 238 1936 177 
Q 2041 116 2219 116 
L 2359 116 
L 2359 0 
L 144 0 
L 144 116 
L 284 116 
Q 469 116 581 181 
Q 663 225 706 331 
Q 741 406 741 725 
L 741 3513 
Q 741 3838 706 3919 
Q 672 4000 567 4061 
Q 463 4122 284 4122 
L 144 4122 
L 144 4238 
L 3719 4238 
L 3719 3022 
L 3591 3022 
Q 3547 3450 3367 3656 
Q 3188 3863 2847 3947 
Q 2659 3994 2153 3994 
L 1759 3994 
z
" transform="scale(0.015625)"/>
      <path id="TimesNewRomanPS-BoldMT-53" d="M 3006 4334 
L 3041 2922 
L 2913 2922 
Q 2822 3453 2467 3776 
Q 2113 4100 1700 4100 
Q 1381 4100 1195 3929 
Q 1009 3759 1009 3538 
Q 1009 3397 1075 3288 
Q 1166 3141 1366 2997 
Q 1513 2894 2044 2631 
Q 2788 2266 3047 1941 
Q 3303 1616 3303 1197 
Q 3303 666 2889 283 
Q 2475 -100 1838 -100 
Q 1638 -100 1459 -59 
Q 1281 -19 1013 94 
Q 863 156 766 156 
Q 684 156 593 93 
Q 503 31 447 -97 
L 331 -97 
L 331 1503 
L 447 1503 
Q 584 828 976 473 
Q 1369 119 1822 119 
Q 2172 119 2380 309 
Q 2588 500 2588 753 
Q 2588 903 2508 1043 
Q 2428 1184 2265 1311 
Q 2103 1438 1691 1641 
Q 1113 1925 859 2125 
Q 606 2325 470 2572 
Q 334 2819 334 3116 
Q 334 3622 706 3978 
Q 1078 4334 1644 4334 
Q 1850 4334 2044 4284 
Q 2191 4247 2402 4145 
Q 2613 4044 2697 4044 
Q 2778 4044 2825 4094 
Q 2872 4144 2913 4334 
L 3006 4334 
z
" transform="scale(0.015625)"/>
      <path id="TimesNewRomanPS-BoldMT-52" d="M 1700 1931 
L 1700 744 
Q 1700 400 1742 311 
Q 1784 222 1890 169 
Q 1997 116 2288 116 
L 2288 0 
L 119 0 
L 119 116 
Q 413 116 517 170 
Q 622 225 664 312 
Q 706 400 706 744 
L 706 3494 
Q 706 3838 664 3927 
Q 622 4016 515 4069 
Q 409 4122 119 4122 
L 119 4238 
L 2088 4238 
Q 2856 4238 3212 4131 
Q 3569 4025 3794 3739 
Q 4019 3453 4019 3069 
Q 4019 2600 3681 2294 
Q 3466 2100 3078 2003 
L 4097 569 
Q 4297 291 4381 222 
Q 4509 125 4678 116 
L 4678 0 
L 3344 0 
L 1978 1931 
L 1700 1931 
z
M 1700 4009 
L 1700 2153 
L 1878 2153 
Q 2313 2153 2528 2233 
Q 2744 2313 2867 2520 
Q 2991 2728 2991 3063 
Q 2991 3547 2764 3778 
Q 2538 4009 2034 4009 
L 1700 4009 
z
" transform="scale(0.015625)"/>
      <path id="TimesNewRomanPS-BoldMT-29" d="M 78 -1281 
L 78 -1138 
Q 403 -922 556 -719 
Q 766 -438 888 0 
Q 1038 550 1038 1531 
Q 1038 2456 902 2967 
Q 766 3478 531 3794 
Q 369 4013 78 4178 
L 78 4334 
Q 831 4081 1354 3301 
Q 1878 2522 1878 1509 
Q 1878 513 1354 -257 
Q 831 -1028 78 -1281 
z
" transform="scale(0.015625)"/>
     </defs>
     <use xlink:href="#TimesNewRomanPS-BoldMT-54" transform="translate(0 0.015625)"/>
     <use xlink:href="#TimesNewRomanPS-BoldMT-61" transform="translate(66.699219 0.015625)"/>
     <use xlink:href="#TimesNewRomanPS-BoldMT-73" transform="translate(116.699219 0.015625)"/>
     <use xlink:href="#TimesNewRomanPS-BoldMT-61" transform="translate(155.615234 0.015625)"/>
     <use xlink:href="#TimesNewRomanPS-BoldMT-20" transform="translate(205.615234 0.015625)"/>
     <use xlink:href="#TimesNewRomanPS-BoldMT-64" transform="translate(230.615234 0.015625)"/>
     <use xlink:href="#TimesNewRomanPS-BoldMT-65" transform="translate(286.230469 0.015625)"/>
     <use xlink:href="#TimesNewRomanPS-BoldMT-20" transform="translate(330.615234 0.015625)"/>
     <use xlink:href="#TimesNewRomanPS-BoldMT-65" transform="translate(355.615234 0.015625)"/>
     <use xlink:href="#TimesNewRomanPS-BoldMT-78" transform="translate(400 0.015625)"/>
     <use xlink:href="#TimesNewRomanPS-BoldMT-63" transform="translate(450 0.015625)"/>
     <use xlink:href="#TimesNewRomanPS-BoldMT-65" transform="translate(494.384766 0.015625)"/>
     <use xlink:href="#TimesNewRomanPS-BoldMT-64" transform="translate(538.769531 0.015625)"/>
     <use xlink:href="#TimesNewRomanPS-BoldMT-65" transform="translate(594.384766 0.015625)"/>
     <use xlink:href="#TimesNewRomanPS-BoldMT-6e" transform="translate(638.769531 0.015625)"/>
     <use xlink:href="#TimesNewRomanPS-BoldMT-63" transform="translate(694.384766 0.015625)"/>
     <use xlink:href="#TimesNewRomanPS-BoldMT-69" transform="translate(738.769531 0.015625)"/>
     <use xlink:href="#TimesNewRomanPS-BoldMT-61" transform="translate(766.552734 0.015625)"/>
     <use xlink:href="#TimesNewRomanPS-BoldMT-20" transform="translate(816.552734 0.015625)"/>
     <use xlink:href="#DejaVuSans-Oblique-3bb" transform="translate(841.552734 0.015625)"/>
     <use xlink:href="#DejaVuSans-28" transform="translate(900.732422 0.015625)"/>
     <use xlink:href="#DejaVuSans-Oblique-4c" transform="translate(939.746094 0.015625)"/>
     <use xlink:href="#DejaVuSans-29" transform="translate(995.458984 0.015625)"/>
     <use xlink:href="#TimesNewRomanPS-BoldMT-20" transform="translate(1034.472656 0.015625)"/>
     <use xlink:href="#TimesNewRomanPS-BoldMT-28" transform="translate(1059.472656 0.015625)"/>
     <use xlink:href="#TimesNewRomanPS-BoldMT-63" transform="translate(1092.773438 0.015625)"/>
     <use xlink:href="#TimesNewRomanPS-BoldMT-6f" transform="translate(1137.158203 0.015625)"/>
     <use xlink:href="#TimesNewRomanPS-BoldMT-6e" transform="translate(1187.158203 0.015625)"/>
     <use xlink:href="#TimesNewRomanPS-BoldMT-20" transform="translate(1242.773438 0.015625)"/>
     <use xlink:href="#TimesNewRomanPS-BoldMT-76" transform="translate(1267.773438 0.015625)"/>
     <use xlink:href="#TimesNewRomanPS-BoldMT-73" transform="translate(1317.773438 0.015625)"/>
     <use xlink:href="#TimesNewRomanPS-BoldMT-20" transform="translate(1356.689453 0.015625)"/>
     <use xlink:href="#TimesNewRomanPS-BoldMT-73" transform="translate(1381.689453 0.015625)"/>
     <use xlink:href="#TimesNewRomanPS-BoldMT-69" transform="translate(1420.605469 0.015625)"/>
     <use xlink:href="#TimesNewRomanPS-BoldMT-6e" transform="translate(1448.388672 0.015625)"/>
     <use xlink:href="#TimesNewRomanPS-BoldMT-20" transform="translate(1504.003906 0.015625)"/>
     <use xlink:href="#TimesNewRomanPS-BoldMT-46" transform="translate(1529.003906 0.015625)"/>
     <use xlink:href="#TimesNewRomanPS-BoldMT-53" transform="translate(1590.087891 0.015625)"/>
     <use xlink:href="#TimesNewRomanPS-BoldMT-52" transform="translate(1645.703125 0.015625)"/>
     <use xlink:href="#TimesNewRomanPS-BoldMT-29" transform="translate(1717.919922 0.015625)"/>
    </g>
   </g>
   <g id="legend_1">
    <g id="line2d_94">
     <path d="M 49.985 193.906911 
L 57.185 193.906911 
L 64.385 193.906911 
" style="fill: none; stroke: #1f77b4; stroke-width: 2; stroke-linecap: square"/>
    </g>
    <g id="text_13">
     <!-- Nacional — con FSR -->
     <g transform="translate(70.145 196.426911) scale(0.072 -0.072)">
      <defs>
       <path id="TimesNewRomanPSMT-4e" d="M -84 4238 
L 1066 4238 
L 3656 1059 
L 3656 3503 
Q 3656 3894 3569 3991 
Q 3453 4122 3203 4122 
L 3056 4122 
L 3056 4238 
L 4531 4238 
L 4531 4122 
L 4381 4122 
Q 4113 4122 4000 3959 
Q 3931 3859 3931 3503 
L 3931 -69 
L 3819 -69 
L 1025 3344 
L 1025 734 
Q 1025 344 1109 247 
Q 1228 116 1475 116 
L 1625 116 
L 1625 0 
L 150 0 
L 150 116 
L 297 116 
Q 569 116 681 278 
Q 750 378 750 734 
L 750 3681 
Q 566 3897 470 3965 
Q 375 4034 191 4094 
Q 100 4122 -84 4122 
L -84 4238 
z
" transform="scale(0.015625)"/>
       <path id="TimesNewRomanPSMT-2014" d="M 6456 1416 
L -59 1416 
L -59 1647 
L 6456 1647 
L 6456 1416 
z
" transform="scale(0.015625)"/>
       <path id="TimesNewRomanPSMT-46" d="M 1309 4006 
L 1309 2341 
L 2081 2341 
Q 2347 2341 2470 2458 
Q 2594 2575 2634 2922 
L 2750 2922 
L 2750 1488 
L 2634 1488 
Q 2631 1734 2570 1850 
Q 2509 1966 2401 2023 
Q 2294 2081 2081 2081 
L 1309 2081 
L 1309 750 
Q 1309 428 1350 325 
Q 1381 247 1481 191 
Q 1619 116 1769 116 
L 1922 116 
L 1922 0 
L 103 0 
L 103 116 
L 253 116 
Q 516 116 634 269 
Q 709 369 709 750 
L 709 3488 
Q 709 3809 669 3913 
Q 638 3991 541 4047 
Q 406 4122 253 4122 
L 103 4122 
L 103 4238 
L 3256 4238 
L 3297 3306 
L 3188 3306 
Q 3106 3603 2998 3742 
Q 2891 3881 2733 3943 
Q 2575 4006 2244 4006 
L 1309 4006 
z
" transform="scale(0.015625)"/>
       <path id="TimesNewRomanPSMT-53" d="M 2934 4334 
L 2934 2869 
L 2819 2869 
Q 2763 3291 2617 3541 
Q 2472 3791 2203 3937 
Q 1934 4084 1647 4084 
Q 1322 4084 1109 3886 
Q 897 3688 897 3434 
Q 897 3241 1031 3081 
Q 1225 2847 1953 2456 
Q 2547 2138 2764 1967 
Q 2981 1797 3098 1565 
Q 3216 1334 3216 1081 
Q 3216 600 2842 251 
Q 2469 -97 1881 -97 
Q 1697 -97 1534 -69 
Q 1438 -53 1133 45 
Q 828 144 747 144 
Q 669 144 623 97 
Q 578 50 556 -97 
L 441 -97 
L 441 1356 
L 556 1356 
Q 638 900 775 673 
Q 913 447 1195 297 
Q 1478 147 1816 147 
Q 2206 147 2432 353 
Q 2659 559 2659 841 
Q 2659 997 2573 1156 
Q 2488 1316 2306 1453 
Q 2184 1547 1640 1851 
Q 1097 2156 867 2337 
Q 638 2519 519 2737 
Q 400 2956 400 3219 
Q 400 3675 750 4004 
Q 1100 4334 1641 4334 
Q 1978 4334 2356 4169 
Q 2531 4091 2603 4091 
Q 2684 4091 2736 4139 
Q 2788 4188 2819 4334 
L 2934 4334 
z
" transform="scale(0.015625)"/>
       <path id="TimesNewRomanPSMT-52" d="M 4325 0 
L 3194 0 
L 1759 1981 
Q 1600 1975 1500 1975 
Q 1459 1975 1412 1976 
Q 1366 1978 1316 1981 
L 1316 750 
Q 1316 350 1403 253 
Q 1522 116 1759 116 
L 1925 116 
L 1925 0 
L 109 0 
L 109 116 
L 269 116 
Q 538 116 653 291 
Q 719 388 719 750 
L 719 3488 
Q 719 3888 631 3984 
Q 509 4122 269 4122 
L 109 4122 
L 109 4238 
L 1653 4238 
Q 2328 4238 2648 4139 
Q 2969 4041 3192 3777 
Q 3416 3513 3416 3147 
Q 3416 2756 3161 2468 
Q 2906 2181 2372 2063 
L 3247 847 
Q 3547 428 3762 290 
Q 3978 153 4325 116 
L 4325 0 
z
M 1316 2178 
Q 1375 2178 1419 2176 
Q 1463 2175 1491 2175 
Q 2097 2175 2405 2437 
Q 2713 2700 2713 3106 
Q 2713 3503 2464 3751 
Q 2216 4000 1806 4000 
Q 1625 4000 1316 3941 
L 1316 2178 
z
" transform="scale(0.015625)"/>
      </defs>
      <use xlink:href="#TimesNewRomanPSMT-4e"/>
      <use xlink:href="#TimesNewRomanPSMT-61" transform="translate(72.216797 0)"/>
      <use xlink:href="#TimesNewRomanPSMT-63" transform="translate(116.601562 0)"/>
      <use xlink:href="#TimesNewRomanPSMT-69" transform="translate(160.986328 0)"/>
      <use xlink:href="#TimesNewRomanPSMT-6f" transform="translate(188.769531 0)"/>
      <use xlink:href="#TimesNewRomanPSMT-6e" transform="translate(238.769531 0)"/>
      <use xlink:href="#TimesNewRomanPSMT-61" transform="translate(288.769531 0)"/>
      <use xlink:href="#TimesNewRomanPSMT-6c" transform="translate(333.154297 0)"/>
      <use xlink:href="#TimesNewRomanPSMT-20" transform="translate(360.9375 0)"/>
      <use xlink:href="#TimesNewRomanPSMT-2014" transform="translate(385.9375 0)"/>
      <use xlink:href="#TimesNewRomanPSMT-20" transform="translate(485.9375 0)"/>
      <use xlink:href="#TimesNewRomanPSMT-63" transform="translate(510.9375 0)"/>
      <use xlink:href="#TimesNewRomanPSMT-6f" transform="translate(555.322266 0)"/>
      <use xlink:href="#TimesNewRomanPSMT-6e" transform="translate(605.322266 0)"/>
      <use xlink:href="#TimesNewRomanPSMT-20" transform="translate(655.322266 0)"/>
      <use xlink:href="#TimesNewRomanPSMT-46" transform="translate(680.322266 0)"/>
      <use xlink:href="#TimesNewRomanPSMT-53" transform="translate(735.9375 0)"/>
      <use xlink:href="#TimesNewRomanPSMT-52" transform="translate(791.552734 0)"/>
     </g>
    </g>
    <g id="line2d_95">
     <path d="M 49.985 204.087036 
L 57.185 204.087036 
L 64.385 204.087036 
" style="fill: none; stroke-dasharray: 5.92,2.56; stroke-dashoffset: 0; stroke: #1f77b4; stroke-width: 1.6"/>
    </g>
    <g id="text_14">
     <!-- Nacional — sin FSR -->
     <g transform="translate(70.145 206.607036) scale(0.072 -0.072)">
      <use xlink:href="#TimesNewRomanPSMT-4e"/>
      <use xlink:href="#TimesNewRomanPSMT-61" transform="translate(72.216797 0)"/>
      <use xlink:href="#TimesNewRomanPSMT-63" transform="translate(116.601562 0)"/>
      <use xlink:href="#TimesNewRomanPSMT-69" transform="translate(160.986328 0)"/>
      <use xlink:href="#TimesNewRomanPSMT-6f" transform="translate(188.769531 0)"/>
      <use xlink:href="#TimesNewRomanPSMT-6e" transform="translate(238.769531 0)"/>
      <use xlink:href="#TimesNewRomanPSMT-61" transform="translate(288.769531 0)"/>
      <use xlink:href="#TimesNewRomanPSMT-6c" transform="translate(333.154297 0)"/>
      <use xlink:href="#TimesNewRomanPSMT-20" transform="translate(360.9375 0)"/>
      <use xlink:href="#TimesNewRomanPSMT-2014" transform="translate(385.9375 0)"/>
      <use xlink:href="#TimesNewRomanPSMT-20" transform="translate(485.9375 0)"/>
      <use xlink:href="#TimesNewRomanPSMT-73" transform="translate(510.9375 0)"/>
      <use xlink:href="#TimesNewRomanPSMT-69" transform="translate(549.853516 0)"/>
      <use xlink:href="#TimesNewRomanPSMT-6e" transform="translate(577.636719 0)"/>
      <use xlink:href="#TimesNewRomanPSMT-20" transform="translate(627.636719 0)"/>
      <use xlink:href="#TimesNewRomanPSMT-46" transform="translate(652.636719 0)"/>
      <use xlink:href="#TimesNewRomanPSMT-53" transform="translate(708.251953 0)"/>
      <use xlink:href="#TimesNewRomanPSMT-52" transform="translate(763.867188 0)"/>
     </g>
    </g>
    <g id="line2d_96">
     <path d="M 49.985 214.267161 
L 57.185 214.267161 
L 64.385 214.267161 
" style="fill: none; stroke: #ff7f0e; stroke-width: 2; stroke-linecap: square"/>
    </g>
    <g id="text_15">
     <!-- HAZUS — con FSR -->
     <g transform="translate(70.145 216.787161) scale(0.072 -0.072)">
      <defs>
       <path id="TimesNewRomanPSMT-48" d="M 1316 2272 
L 3284 2272 
L 3284 3484 
Q 3284 3809 3244 3913 
Q 3213 3991 3113 4047 
Q 2978 4122 2828 4122 
L 2678 4122 
L 2678 4238 
L 4491 4238 
L 4491 4122 
L 4341 4122 
Q 4191 4122 4056 4050 
Q 3956 4000 3920 3898 
Q 3884 3797 3884 3484 
L 3884 750 
Q 3884 428 3925 325 
Q 3956 247 4053 191 
Q 4191 116 4341 116 
L 4491 116 
L 4491 0 
L 2678 0 
L 2678 116 
L 2828 116 
Q 3088 116 3206 269 
Q 3284 369 3284 750 
L 3284 2041 
L 1316 2041 
L 1316 750 
Q 1316 428 1356 325 
Q 1388 247 1488 191 
Q 1622 116 1772 116 
L 1925 116 
L 1925 0 
L 109 0 
L 109 116 
L 259 116 
Q 522 116 641 269 
Q 716 369 716 750 
L 716 3484 
Q 716 3809 675 3913 
Q 644 3991 547 4047 
Q 409 4122 259 4122 
L 109 4122 
L 109 4238 
L 1925 4238 
L 1925 4122 
L 1772 4122 
Q 1622 4122 1488 4050 
Q 1391 4000 1353 3898 
Q 1316 3797 1316 3484 
L 1316 2272 
z
" transform="scale(0.015625)"/>
       <path id="TimesNewRomanPSMT-41" d="M 2928 1419 
L 1288 1419 
L 1000 750 
Q 894 503 894 381 
Q 894 284 986 211 
Q 1078 138 1384 116 
L 1384 0 
L 50 0 
L 50 116 
Q 316 163 394 238 
Q 553 388 747 847 
L 2238 4334 
L 2347 4334 
L 3822 809 
Q 4000 384 4145 257 
Q 4291 131 4550 116 
L 4550 0 
L 2878 0 
L 2878 116 
Q 3131 128 3220 200 
Q 3309 272 3309 375 
Q 3309 513 3184 809 
L 2928 1419 
z
M 2841 1650 
L 2122 3363 
L 1384 1650 
L 2841 1650 
z
" transform="scale(0.015625)"/>
       <path id="TimesNewRomanPSMT-5a" d="M 3681 4238 
L 897 256 
L 2634 256 
Q 3034 256 3248 431 
Q 3463 606 3628 1141 
L 3731 1122 
L 3531 0 
L 81 0 
L 81 116 
L 2800 3984 
L 1444 3984 
Q 1106 3984 954 3911 
Q 803 3838 723 3698 
Q 644 3559 578 3178 
L 459 3178 
L 547 4238 
L 3681 4238 
z
" transform="scale(0.015625)"/>
      </defs>
      <use xlink:href="#TimesNewRomanPSMT-48"/>
      <use xlink:href="#TimesNewRomanPSMT-41" transform="translate(72.216797 0)"/>
      <use xlink:href="#TimesNewRomanPSMT-5a" transform="translate(144.433594 0)"/>
      <use xlink:href="#TimesNewRomanPSMT-55" transform="translate(205.517578 0)"/>
      <use xlink:href="#TimesNewRomanPSMT-53" transform="translate(277.734375 0)"/>
      <use xlink:href="#TimesNewRomanPSMT-20" transform="translate(333.349609 0)"/>
      <use xlink:href="#TimesNewRomanPSMT-2014" transform="translate(358.349609 0)"/>
      <use xlink:href="#TimesNewRomanPSMT-20" transform="translate(458.349609 0)"/>
      <use xlink:href="#TimesNewRomanPSMT-63" transform="translate(483.349609 0)"/>
      <use xlink:href="#TimesNewRomanPSMT-6f" transform="translate(527.734375 0)"/>
      <use xlink:href="#TimesNewRomanPSMT-6e" transform="translate(577.734375 0)"/>
      <use xlink:href="#TimesNewRomanPSMT-20" transform="translate(627.734375 0)"/>
      <use xlink:href="#TimesNewRomanPSMT-46" transform="translate(652.734375 0)"/>
      <use xlink:href="#TimesNewRomanPSMT-53" transform="translate(708.349609 0)"/>
      <use xlink:href="#TimesNewRomanPSMT-52" transform="translate(763.964844 0)"/>
     </g>
    </g>
    <g id="line2d_97">
     <path d="M 49.985 224.447286 
L 57.185 224.447286 
L 64.385 224.447286 
" style="fill: none; stroke-dasharray: 5.92,2.56; stroke-dashoffset: 0; stroke: #ff7f0e; stroke-width: 1.6"/>
    </g>
    <g id="text_16">
     <!-- HAZUS — sin FSR -->
     <g transform="translate(70.145 226.967286) scale(0.072 -0.072)">
      <use xlink:href="#TimesNewRomanPSMT-48"/>
      <use xlink:href="#TimesNewRomanPSMT-41" transform="translate(72.216797 0)"/>
      <use xlink:href="#TimesNewRomanPSMT-5a" transform="translate(144.433594 0)"/>
      <use xlink:href="#TimesNewRomanPSMT-55" transform="translate(205.517578 0)"/>
      <use xlink:href="#TimesNewRomanPSMT-53" transform="translate(277.734375 0)"/>
      <use xlink:href="#TimesNewRomanPSMT-20" transform="translate(333.349609 0)"/>
      <use xlink:href="#TimesNewRomanPSMT-2014" transform="translate(358.349609 0)"/>
      <use xlink:href="#TimesNewRomanPSMT-20" transform="translate(458.349609 0)"/>
      <use xlink:href="#TimesNewRomanPSMT-73" transform="translate(483.349609 0)"/>
      <use xlink:href="#TimesNewRomanPSMT-69" transform="translate(522.265625 0)"/>
      <use xlink:href="#TimesNewRomanPSMT-6e" transform="translate(550.048828 0)"/>
      <use xlink:href="#TimesNewRomanPSMT-20" transform="translate(600.048828 0)"/>
      <use xlink:href="#TimesNewRomanPSMT-46" transform="translate(625.048828 0)"/>
      <use xlink:href="#TimesNewRomanPSMT-53" transform="translate(680.664062 0)"/>
      <use xlink:href="#TimesNewRomanPSMT-52" transform="translate(736.279297 0)"/>
     </g>
    </g>
   </g>
  </g>
 </g>
 <defs>
  <clipPath id="pf0cd0f96df">
   <rect x="43.505" y="20.004844" width="216.89452" height="214.982567"/>
  </clipPath>
 </defs>
</svg>
